<?xml version="1.0" encoding="utf-8"?>
<!-- Generator: Adobe Illustrator 16.0.0, SVG Export Plug-In . SVG Version: 6.00 Build 0)  -->
<!DOCTYPE svg PUBLIC "-//W3C//DTD SVG 1.1//EN" "http://www.w3.org/Graphics/SVG/1.1/DTD/svg11.dtd">
<svg version="1.1" xmlns="http://www.w3.org/2000/svg" xmlns:xlink="http://www.w3.org/1999/xlink" x="0px" y="0px"
	 width="330.238px" height="212.135px" viewBox="0 0 330.238 212.135" enable-background="new 0 0 330.238 212.135"
	 xml:space="preserve">
<filter  id="AI_GaussianBlur_4">
	<feGaussianBlur  stdDeviation="4"></feGaussianBlur>
</filter>
<g id="Layer_2" display="none">
	<rect x="-134.072" y="-61.736" display="inline" fill="#F48031" width="624" height="356"/>
</g>
<g id="Layer_1">
	<g>
		<g>
			<g>
				<path fill="#056FB7" d="M191.575,199.115c-0.547-1.055-1.257-1.807-2.135-2.256c-0.879-0.445-2.047-0.669-3.507-0.669
					c-2.372,0-4.379,0.616-6.023,1.857c-1.641,1.239-2.694,2.904-3.15,4.994c-0.121,0.614-0.184,1.195-0.184,1.741
					c0,1.282,0.369,2.354,1.107,3.213c1.071,1.232,2.761,1.848,5.061,1.848c2.654,0,4.984-0.984,6.987-2.952l1.871,1.29
					c-2.723,2.636-5.826,3.954-9.306,3.954c-2.601,0-4.638-0.606-6.113-1.817c-1.477-1.213-2.217-2.892-2.217-5.037
					c0-0.684,0.088-1.395,0.265-2.134c0.599-2.829,2.004-5.079,4.217-6.746c2.215-1.671,4.878-2.508,7.989-2.508
					c1.826,0,3.329,0.29,4.507,0.872c1.266,0.614,2.284,1.636,3.057,3.057L191.575,199.115z"/>
				<path fill="#056FB7" d="M225.315,211.952l-1.448-5.272h-8.806l-3.717,5.272h-2.847l12.756-17.873h1.979l4.85,17.873H225.315z
					 M221.439,197.796l-4.718,6.591h6.538L221.439,197.796z"/>
				<path fill="#056FB7" d="M264.168,211.952l2.689-12.602l-9.488,12.602h-1.821l-4.166-12.602l-2.688,12.602h-2.526l3.819-17.873
					h2.477l4.722,14.366l10.857-14.366h2.477l-3.82,17.873H264.168z"/>
				<path fill="#056FB7" d="M301.994,203.569c-1.459,0.721-3.154,1.082-5.087,1.082h-6.09l-1.555,7.301h-2.53l3.824-17.873h8.88
					c4.076,0,6.116,1.354,6.116,4.061c0,0.404-0.044,0.834-0.131,1.29C305.017,201.258,303.875,202.638,301.994,203.569z
					 M299.123,196.374h-6.541l-1.264,5.981h6.538c1.267,0,2.346-0.246,3.242-0.735c0.966-0.528,1.546-1.249,1.74-2.164
					c0.067-0.299,0.105-0.578,0.105-0.842C302.944,197.121,301.668,196.374,299.123,196.374z"/>
			</g>
		</g>
		<path fill="#056FB7" d="M182.902,131.054c0.92-5.113,1.665-8.989,2.277-11.952c-2.145,1.451-6.443,3.609-8.411,4.546
			c-0.129,1.431-0.644,4.174-1.81,9.865C176.203,133.513,180.316,132.228,182.902,131.054z"/>
		<path fill="#056FB7" d="M123.13,129.375c2.446,1.674,5.15,3.71,8.091,3.71c0.099,0,0.168,0,0.271,0
			c8.212,0,11.814,0.64,13.559,1.109c0,0,4.417-0.724,5.882-0.771c0.134-0.746,0.28-1.424,0.403-2.17
			c0.178-1.081,0.334-1.984,0.481-2.812c-8.4-0.229-15.339-2.108-20.777-5.778c-6.897-4.595-10.345-11.126-10.345-19.646
			c0-2.569,0.27-5.325,0.813-8.302c2.432-10.952,8.043-19.533,16.836-25.754c8.246-5.681,18.119-8.519,29.616-8.519
			c6.76,0,11.493,0.41,14.198,1.221c4.058,1.084,8.116,3.652,12.17,7.711c4.327,4.463,6.493,10.075,6.493,16.836
			c0,2.705-0.34,5.545-1.016,8.518c-0.965,4.545-2.54,8.611-4.619,12.279c0.638-0.021,1.318-0.037,2.07-0.037
			c2.741,0,5.746,0.091,8.375,0.35c1.907-3.877,3.363-8.062,4.316-12.592c0.812-3.65,1.22-7.099,1.22-10.344
			c0-10.955-4.193-19.338-12.578-25.152c-7.438-5.138-16.907-7.709-28.397-7.709c-17.042,0-31.04,4.869-41.991,14.606l4.461-19.475
			c2.435-10.955,7.978-19.472,16.634-25.558c8.247-5.681,18.122-8.52,29.617-8.52c9.462,0,17.036,2.097,22.718,6.288
			c6.493,4.598,9.738,9.825,9.738,18.75c0,3.245-0.34,6.312-1.016,9.013H220.5c0.945-2.701,1.419-7.318,1.419-11.245
			c0-11.224-4.128-18.975-12.374-24.791c-7.168-5.139-16.636-7.328-28.4-7.328c-14.472,0-27.049,3.778-37.729,10.944
			c-11.36,7.575-18.53,18.286-21.502,31.942l-9.533,44.674c-0.136,0.679-0.274,1.243-0.405,1.648l-0.609,2.244
			c-0.679,3.653-1.013,6.814-1.013,9.922C110.352,115.595,114.61,123.693,123.13,129.375z"/>
		<path fill="#056FB7" d="M318.675,9.939C310.966,3.316,300.687,0,287.843,0c-16.227,0-30.125,4.837-41.688,14.503
			c-11.562,9.67-19.036,22.415-22.414,38.238l-6.896,33.266c-1.084,4.868-1.623,9.467-1.623,13.795
			c0,9.469,2.499,17.445,7.504,23.935c5.58,7.274,13.511,11.825,23.72,13.735c4.388-2.52,9.517-4.045,15.316-4.045
			c5.266,0,9.937,1.451,13.741,4.032c1.274-0.217,2.438-0.459,3.414-0.741c3.828-1.104,5.356-0.56,9.836-3.604
			c1-5.192,1.984-10.078,2.884-14.126c-5.329,5.529-18.611,10.023-31.588,10.023c-10.276,0-18.456-2.637-24.542-7.911
			c-6.493-5.68-9.738-13.521-9.738-23.531c0-3.65,0.472-7.504,1.422-11.562l6.897-33.266c2.839-12.983,8.825-23.43,17.954-31.341
			c9.123-7.912,20.313-11.867,33.569-11.867c10.273,0,18.526,2.706,24.748,8.115c6.216,5.409,9.33,13.185,9.33,23.326
			c0,3.651-0.476,7.577-1.42,11.767l-6.896,33.266c-1.745,7.892-4.742,14.799-8.86,20.824c1.111-0.047,2.369-0.075,3.839-0.075
			c3.515,0,5.828,0.099,7.382,0.324c3.612-6.284,6.304-13.285,7.984-21.073l6.896-33.266c1.082-5.002,1.623-9.667,1.623-13.997
			C330.238,26.167,326.383,16.567,318.675,9.939z"/>
		<path fill="#056FB7" d="M52.375,137.033c0.135-0.135,0.304-0.253,0.515-0.364c0.082-0.135,0.165-0.272,0.253-0.361
			c0.877-0.873,2.088-1.192,7.336-1.847c0.51-2.146,1.57-7.494,1.576-7.53c-5.274,1.24-8.194,1.879-14.183,1.879
			c-9.875,0-18.191-1.826-24.952-5.478c-8.388-4.594-12.576-11.491-12.576-20.691c0-2.16,0.269-4.968,0.812-7.539l1.419-7.946H2.232
			l-1.016,5.309C0.405,96.388,0,100.261,0,103.639c0,12.039,4.935,21.204,14.807,27.291c8.248,4.868,18.867,7.36,31.849,7.36
			c2.717,0,2.654-0.123,5.253-0.345C52.052,137.507,52.208,137.202,52.375,137.033z"/>
		<path fill="#056FB7" d="M104.06,7.708c-7.301-3.245-16.43-6.402-27.383-6.402c-34.757,0-55.447,15.604-62.072,45.323H24.95
			c5.275-24.316,22.042-35.788,50.308-35.788c8.247,0,15.281,1.983,21.096,4.417c7.978,3.247,11.968,8.836,11.968,16.002
			c0,1.491-0.136,2.774-0.405,4.397c-3.519,16.501-17.378,24.481-41.584,24.481H53.754l-2.027,10.807h12.374
			c22.718,0,34.078,6.993,34.078,21.325c0,2.164-0.272,4.445-0.813,7.01c-0.731,3.384-1.976,6.446-3.683,9.281
			c3.769,1.145,6.549,2.873,8.186,4.499c2.629-4.181,4.524-8.797,5.643-13.856c0.674-3.378,1.013-6.497,1.013-9.336
			c0-11.765-5.882-19.883-17.648-24.346c15.145-5.001,24.274-14.737,27.385-29.208c0.54-2.568,0.812-4.938,0.812-7.103
			C119.073,19.473,114.067,12.307,104.06,7.708z"/>
		<g opacity="0.4" filter="url(#AI_GaussianBlur_4)">
			<path d="M105.219,189.393c-10.572-0.001-15.063-5.537-15.183-14.781c-0.068-8.079,4.804-31.529,6.289-37.549
				c0.185-0.945,18.664-0.947,18.872-0.734c-1.446,9.517-5.836,29.041-5.811,32.416c0.031,2.37,1.182,4.321,3.958,4.321
				c3.8-0.001,6.128-3.907,6.701-7.519c0.499-2.919,4.824-28.437,5.222-28.946c0.41-0.322,17.417-0.274,17.736,0.361
				c0.015,0.946-4.635,27.436-5.432,33.115c-0.295,1.648,0.425,2.059,1.452,2.059c0.618,0,1.542-0.204,2.156-0.306
				c0.421,0.313-1.371,14.386-2.918,15.611c-2.052,1.438-5.542,1.746-7.592,1.746c-6.774,0-9.134-3.283-10.275-6.361
				C118.146,185.8,111.582,189.393,105.219,189.393z"/>
			<path d="M164.292,168.733c-0.3,2.375,0.423,4.021,2.786,4.021c2.465,0,4.312-1.236,5.955-2.166
				c1.132-0.607,1.864,11.114,1.452,13.571c0,0-4.411,5.13-14.879,5.13c-11.286-0.006-15.281-8.192-14.019-19.832
				c0.195-2.651,3.364-18.205,3.361-18.232c-0.001-0.105-4.745,0.108-5.061-0.412c-0.418-0.597,2.014-14.354,2.322-14.492
				c0.415-0.001,5.182-0.12,5.803-0.226c0.519-0.086,1.551-11.386,2.582-12.387c1.03-0.977,17.684-2.1,18.102-1.662
				c0.415,0.579-2.545,14.48-2.439,14.444c0.828-0.002,9.015-0.43,9.224,0.102c0.412,0.983-2.053,14.331-2.051,14.306
				c-0.925,1.353-10.008,0.315-10.213,1.149C167.116,152.892,164.893,163.489,164.292,168.733z"/>
			<path d="M190.698,188.879c-1.951,0.514-15.291,0.719-15.392,0.309c-0.33-0.443,11.057-75.334,13.661-79.696
				c1.576-2.326,19.563-0.595,19.971,0.074c0.498,0.946-5.558,29.517-5.746,30.315c1.979-1.685,5.933-4.22,11.535-4.207
				c8.825,0.01,15.455,6.231,15.271,20.969c-0.247,20.605-13.331,32.314-25.143,32.34c-6.666,0-11.284-3.695-12.924-6.775
				C191.829,182.517,191.107,188.573,190.698,188.879z M205.902,152.782c-5.471-0.002-8.069,6.142-8.083,11.308
				c-0.012,4.235,1.726,7.428,5.732,7.429c5.341,0,8.347-5.663,8.383-10.945C211.962,156.223,210.029,152.784,205.902,152.782z"/>
			<path d="M280.9,158.876c-0.437,16.272-11.814,30.305-29.561,30.312c-11.899-0.008-20.943-8.596-20.826-22.406
				c0.113-15.549,12.079-30.926,29.647-30.818C272.329,136.047,281.267,144.977,280.9,158.876z M257.483,153.879
				c-5.474-0.011-9.075,5.173-9.159,11.874c-0.056,4.434,1.973,7.21,5.261,7.312c5.135,0.205,8.991-4.926,9.129-12.253
				C262.807,155.859,260.581,153.884,257.483,153.879z"/>
			<path d="M302.551,187.442c-2.058,1.438-6.879,1.847-9.65,1.847c-9.121-0.001-13.168-4.61-11.264-15.804
				c1.72-10.979,12.498-61.24,14.102-62.853c1.614-1.434,17.814-0.631,18.003,0.097c0.444,1.159-11.979,51.039-13.074,57.32
				c-0.703,3.694,0.732,4.206,1.963,4.206c0.517,0,2.271-0.305,2.993-0.405C305.992,172.256,304.155,186.211,302.551,187.442z"/>
			<path d="M83.123,109.77c-11.718,0.305-17.542,8.404-18.956,17.812c-0.667,4.458-1.106,9.203-1.103,9.308
				c0.004,0.102-7.978,0.893-8.576,1.51c-0.596,0.627-1.234,13.043-0.92,13.242c0.318,0.206,6.215,0.082,6.943,0.184
				c-0.112,0.831-4.339,27.732-6.483,37.463c6.388,0,12.776,0,19.165,0c2.97-14.585,6.04-38.006,6.235-37.932
				c0.21,0.102,10.129-0.133,10.628-0.86c1.097-1.641,2.433-13.293,2.43-13.307c-0.457-1.459-10.097-0.663-10.933-0.864
				c0.195-1.456,0.39-2.915,0.585-4.376c0.534-2.817,1.605-5.136,5.253-5.178c2.604-0.029,4.521,1.425,5.993,1.935
				c0.735,0.327,4.694-10.901,5.457-13.928C97.231,113.096,92.012,109.556,83.123,109.77z"/>
		</g>
		<g>
			<g>
				<path fill="#E0E0D9" d="M103.994,190.021c-10.734,0-15.322-5.628-15.322-15.011c0-8.234,5.525-31.896,7.191-37.835
					c0.209-0.94,18.764-0.837,18.971-0.628c-1.667,9.383-6.462,29.082-6.462,32.521c0,2.399,1.147,4.378,3.962,4.378
					c3.854,0,6.253-3.961,6.878-7.609c0.521-3.021,5.316-28.558,5.733-28.976c0.417-0.313,17.51-0.208,17.824,0.418
					c0,0.833-5.003,27.311-5.837,33.146c-0.311,1.667,0.417,2.083,1.459,2.083c0.626,0,1.565-0.207,2.189-0.311
					c0.417,0.311-1.459,14.591-3.021,15.841c-2.086,1.46-5.631,1.773-7.713,1.773c-6.881,0-9.278-3.335-10.424-6.461
					C117.127,186.372,110.457,190.021,103.994,190.021z"/>
				<path fill="#E0E0D9" d="M164.035,169.068c-0.312,2.399,0.418,4.066,2.815,4.066c2.501,0,4.377-1.251,6.044-2.189
					c1.147-0.623,1.878,11.258,1.462,13.759c0,0-4.483,5.211-15.116,5.211c-11.465,0-15.532-8.337-14.176-20.118
					c0.209-2.706,3.544-18.342,3.544-18.342c0-0.105-4.793,0.103-5.106-0.417c-0.418-0.625,2.189-14.279,2.5-14.385
					c0.417,0,5.212-0.105,5.837-0.209c0.522-0.105,1.669-11.152,2.709-12.092c1.043-0.938,17.72-1.978,18.137-1.562
					c0.417,0.521-2.604,14.07-2.501,14.07c0.834,0,9.069-0.417,9.277,0.105c0.417,0.938-2.085,14.178-2.085,14.178
					c-0.936,1.35-10.11,0.311-10.319,1.144C166.952,153.122,164.661,163.752,164.035,169.068z"/>
				<path fill="#E0E0D9" d="M190.825,189.499c-1.98,0.522-15.532,0.73-15.635,0.313c-0.311-0.939,11.258-75.881,13.757-79.01
					c1.564-2.188,19.492-0.623,19.909,0c0.522,0.728-5.316,28.455-5.522,29.394c1.981-1.666,5.939-4.168,11.569-4.168
					c8.86,0,15.634,6.044,15.634,20.846c0,20.744-13.34,32.73-25.33,32.73c-6.772,0-11.463-3.755-13.131-6.882
					C191.972,183.037,191.243,189.187,190.825,189.499z M206.147,153.019c-5.525,0-8.13,6.147-8.13,11.361
					c0,4.271,1.771,7.503,5.836,7.503c5.42,0,8.443-5.733,8.443-11.049C212.296,156.457,210.315,153.019,206.147,153.019z"/>
				<path fill="#E0E0D9" d="M282.031,159.063c0,16.468-11.569,30.749-29.604,30.749c-12.092,0-21.264-8.755-21.264-22.722
					c0-15.741,11.781-30.959,29.396-30.959C272.754,136.131,282.031,144.99,282.031,159.063z M258.266,154.062
					c-5.525,0-9.068,5.208-9.068,11.982c0,4.483,2.082,7.299,5.42,7.401c5.211,0.209,9.068-5.002,9.068-12.403
					C263.686,156.04,261.393,154.062,258.266,154.062z"/>
				<path fill="#E0E0D9" d="M304.445,188.039c-2.085,1.46-6.984,1.876-9.8,1.876c-9.276,0-13.343-4.688-11.569-16.049
					c1.772-11.259,10.735-61.811,12.298-63.376c1.564-1.458,17.72-1.145,17.931-0.417c0.417,1.251-9.902,51.908-11.05,58.268
					c-0.625,3.752,0.834,4.271,2.084,4.271c0.523,0,2.293-0.311,3.024-0.414C307.78,172.612,306.112,186.789,304.445,188.039z"/>
				<path fill="#E0E0D9" d="M83.459,109.967c-11.675,0-17.72,7.924-19.493,17.408c-0.833,4.482-1.458,9.277-1.458,9.383
					c0,0.103-8.027,0.834-8.653,1.456c-0.625,0.629-1.773,13.24-1.458,13.446c0.312,0.211,6.254,0.104,6.984,0.211
					c-0.184,0.828-5.327,28.154-7.388,38.043H71.46c2.971-14.839,6.798-38.561,6.995-38.46c0.208,0.103,10.214-0.105,10.736-0.837
					c1.146-1.664,2.814-13.339,2.814-13.339c-0.417-1.46-10.111-0.731-10.944-0.94l0.728-4.377c0.626-2.812,1.772-5.107,5.42-5.107
					c2.606,0,4.482,1.462,5.941,1.981c0.73,0.313,5.004-10.736,5.837-13.653C97.426,113.511,92.317,109.967,83.459,109.967z"/>
			</g>
		</g>
	</g>
</g>
</svg>
