<?xml version="1.0" encoding="utf-8"?>
<!-- Generator: Adobe Illustrator 16.0.0, SVG Export Plug-In . SVG Version: 6.00 Build 0)  -->
<!DOCTYPE svg PUBLIC "-//W3C//DTD SVG 1.1//EN" "http://www.w3.org/Graphics/SVG/1.1/DTD/svg11.dtd">
<svg version="1.1" id="Layer_1" xmlns="http://www.w3.org/2000/svg" xmlns:xlink="http://www.w3.org/1999/xlink" x="0px" y="0px"
	 width="238.004px" height="17.961px" viewBox="0 0 238.004 17.961" enable-background="new 0 0 238.004 17.961"
	 xml:space="preserve">
<g>
	<path fill="#40B8D1" d="M2.118,17.247c-0.077,0-0.179,0.051-0.229,0.051c-0.97,0-1.633-0.867-1.888-1.557
		c0.918,0,0.791-1.734,1.097-1.734l2.194,1.275c0,0,0.23-0.051,0.459-0.051c0.153,0,0.306,0.025,0.332,0.152
		c0.077,0,0.357-0.025,0.612-0.025c0.74,0,0.714,0.204,0.97,0.204c1.377,0,4.414-0.408,4.414-2.424c0-0.663-0.459-1.862-1.123-2.117
		L2.041,8.011C0.664,7.424,0.153,6.046,0.153,4.618c0-0.944,0.612-1.71,1.071-2.424C2.373,0.638,4.746,0.28,6.557,0.28
		c0.511,0,0.562,0.179,1.786,0.179c0.663,0.103,2.322,0.408,2.373,0.46l0.459,0.484v1.888c0,0.179-0.434,0.816-0.562,0.816
		c-1.454-0.612-3.112-1.812-4.72-1.812c-1.531,0-3.674,0.587-3.674,2.5c0,0.816,1.531,2.118,2.168,2.118
		c0.127,0,0.306-0.026,0.332-0.026C6.276,7.348,6.608,8.47,8.649,8.47c1.684,0.332,3.801,1.939,3.801,3.776
		c0,0.765-0.332,1.199-0.459,1.913c-0.536,1.939-0.51,2.348-2.551,2.68c-0.026,0-0.153,0.127-0.153,0.152
		c-1.071,0.408-2.015,0.664-3.138,0.664c-1.25,0-3.062-0.18-3.929-0.357C2.194,17.272,2.169,17.247,2.118,17.247z M1.174,5.511
		c0.255,0,0.28-0.307,0.28-0.51H0.893C0.893,5.204,0.918,5.511,1.174,5.511z M1.225,4.593c0.281,0,0.383-0.307,0.383-0.511H0.918
		C0.918,4.286,1.021,4.593,1.225,4.593z M1.097,3.776h0.612v-0.23C1.582,3.546,1.148,3.546,1.097,3.776z M1.097,5.791
		c0.025,0,0.127,0.026,0.127,0.026c0.179,0,0.383-0.077,0.383-0.256c0-0.025-0.025-0.051-0.025-0.051L1.097,5.791z M1.225,6.276
		h0.357V6.123H1.225V6.276z M1.888,16.532c0.204,0,0.485-0.128,0.485-0.587c0-0.025-0.026-0.025-0.026-0.051
		C2.271,15.92,1.812,16.149,1.709,16.2c-0.025,0-0.102-0.051-0.127-0.051v-0.102c0.076-0.052,0.663-0.256,0.765-0.485
		c-0.025-0.076-0.306-0.179-0.434-0.179c-0.408,0-0.536,0.536-0.536,0.715C1.378,16.481,1.607,16.532,1.888,16.532z M1.557,3.342
		c0.51,0,0.791-0.459,0.791-0.995C1.965,2.475,1.557,2.908,1.557,3.342z M1.709,6.607c0.025,0,0.153,0.026,0.179,0.026
		c0.127,0,0.255,0,0.332-0.18C2.143,6.327,2.016,6.251,1.965,6.251C1.888,6.251,1.761,6.429,1.709,6.607z M1.99,7.016
		c0,0.077,0.229,0.103,0.357,0.229c0.357,0,0.383-0.306,0.383-0.51c-0.306,0-0.714,0.127-0.714,0.255
		C1.99,7.016,1.99,7.016,1.99,7.016z M2.475,16.507h0.357l-0.153-0.128c0.255-0.179,0.485-0.511,0.485-0.638
		C2.653,15.741,2.475,16.099,2.475,16.507z M2.679,1.989c0,0.052,0.179,0.052,0.204,0.052c0.281,0,1.097-0.332,1.097-0.663
		C3.648,1.378,2.679,1.633,2.679,1.989z M2.832,7.348h0.689c0-0.179-0.281-0.306-0.459-0.306C2.909,7.042,2.883,7.245,2.832,7.348z
		 M3.802,16.685c0.408,0,0.638-0.434,0.638-0.816c-0.255,0-1.276,0-1.276,0.639C3.419,16.608,3.521,16.685,3.802,16.685z
		 M4.261,8.011c0.077,0,0.306-0.204,0.306-0.307L4.388,7.552L3.598,7.704C3.699,7.807,4.133,8.011,4.261,8.011z M4.644,16.839H5.97
		c0.025,0,0.127-0.128,0.153-0.18c0-0.51-0.255-0.611-0.638-0.611C4.72,16.048,4.644,16.251,4.644,16.839z M5.562,8.24
		c0-0.408-0.612-0.408-0.868-0.408C4.694,8.292,5.205,8.24,5.562,8.24z M5.485,1.403c0.153,0,0.562-0.103,0.562-0.307
		c-0.103,0-0.587,0.051-0.868,0.128C5.23,1.275,5.46,1.403,5.485,1.403z M10.384,2.985l0.332-1.25c0-0.307-3.368-0.816-4.26-0.816
		c-0.026,0-0.179,0.178-0.179,0.254c0,0.23,0.204,0.256,0.383,0.256c0.255,0,0.536,0.025,0.561-0.204
		c0.077,0.331,0.357,0.536,0.612,0.536c0.179,0,0.306,0,0.332-0.205l0.485,0.46l0.485-0.46v0.511
		C9.108,2.092,9.593,1.888,9.899,1.735c0.051,0,0.127,0.025,0.179,0.025c0,0.255-0.179,0.51-0.179,0.739
		C9.899,2.78,10.001,2.883,10.384,2.985z M6.939,8.98c0.025,0,0.128-0.025,0.153-0.025C6.812,8.827,6.455,8.648,6.276,8.648
		C6.455,8.827,6.659,8.98,6.939,8.98z M7.067,16.864c0.102,0,0.434,0.025,0.484-0.205c1.097-0.152,3.291-0.408,3.444-1.888
		c-0.153-0.128-0.281-0.153-0.485-0.153c-0.281,0-0.434,1.302-1.148,1.302c-0.051,0-0.255-0.179-0.408-0.179
		c-0.638,0-1.327,0.179-1.812,0.179c-0.229,0-0.459,0-0.536-0.025C6.557,15.92,6.302,16.099,6.276,16.2
		C6.276,16.583,6.735,16.864,7.067,16.864z M7.169,16.354c0.026,0,0.179,0.128,0.204,0.153h-0.28v-0.128
		C7.093,16.379,7.144,16.354,7.169,16.354z M8.037,9.439l0.127-0.179H7.833L8.037,9.439z M9.44,10.281v-0.229H9.287
		C9.338,10.026,9.44,9.848,9.44,9.797c0-0.332-0.332-0.383-0.562-0.383c-0.178,0-0.51-0.025-0.536,0.179
		C8.547,9.848,9.032,10.281,9.44,10.281z M9.414,2.296c0,0,0.026,0.025,0.026,0.051l0.306-0.331c-0.025,0-0.077,0-0.077,0
		C9.567,2.041,9.414,2.194,9.414,2.296z M9.695,10.511h1.097c0-0.28-0.459-0.306-0.638-0.306
		C9.925,10.205,9.695,10.281,9.695,10.511z M10.639,12.042c0.536,0,0.995-0.612,0.995-0.689c0-0.356-0.357-0.51-0.638-0.51
		c-0.051,0-0.766,0.204-0.766,0.307v0.178l0.766,0.307C10.792,11.659,10.639,11.786,10.639,12.042z M10.639,14.39
		c0.664,0,0.893-0.639,0.893-1.225c-0.204,0-0.689,0.203-0.689,0.434c0,0.076,0.077,0.28,0.153,0.408
		C10.792,14.032,10.639,14.159,10.639,14.39z M11.2,12.757c0.714,0,0.663-0.408,0.663-1.021c-0.332,0-1.021,0.434-1.021,0.766
		C10.843,12.73,11.021,12.757,11.2,12.757z"/>
	<path fill="#40B8D1" d="M17.398,16.073h-0.127c-0.051,0-0.842-0.562-1.123-0.791c-0.867-0.689-1.913-3.776-1.913-5.077
		c0-0.077,0-0.179,0.025-0.255c-0.051,0-0.153-0.128-0.153-0.205c0-0.586,0.23-1.377,0.307-2.015
		c0.382-3.419,1.454-5.001,4.26-6.786c0.026,0,0.051,0.025,0.077,0.025c0.485,0,2.5-0.639,3.189-0.639c0.102,0,0.562,0,0.664,0
		c0,0.025,3.112,0.588,3.597,0.766c0.357,0.153,0.689,0.204,0.969,0.484c2.398,2.424,3.317,3.776,3.317,6.991
		c0,1.812-0.485,3.342-0.791,4.949c-0.127,0.688-0.612,0.663-0.612,1.403c0,0.102,0,0.153-0.025,0.179
		c-1.199,2.144-4.516,2.372-6.302,2.372l-2.985-0.306L17.398,16.073z M14.872,10.128c0.459,0,0.689-0.383,0.689-0.791
		C15,9.363,14.872,9.644,14.872,10.128z M14.897,8.189c0.025,0,0.128,0.025,0.153,0.025c0.179,0,0.663-0.128,0.663-0.434
		c0-0.204-0.434-0.408-0.612-0.408C15.102,7.653,15.076,7.985,14.897,8.189z M15.204,10.843c0.026,0,0.255,0.025,0.306,0.025
		c0.255,0,0.485-0.025,0.485-0.307c0-0.102,0-0.331-0.179-0.331C15.535,10.23,15.28,10.716,15.204,10.843z M15.459,6.021
		c0.28,0,0.484-0.051,0.688-0.178c-0.076-0.128-0.382-0.332-0.459-0.332C15.459,5.511,15.459,5.97,15.459,6.021z M15.816,6.939
		c0.179,0,0.204-0.306,0.204-0.357c-0.153,0-0.434,0-0.51,0.204C15.561,6.812,15.765,6.939,15.816,6.939z M15.688,13.394
		l0.306-0.306c0-0.051-0.127-0.179-0.179-0.179c-0.051,0-0.255,0.128-0.306,0.179C15.663,13.165,15.688,13.241,15.688,13.394z
		 M15.995,12.118h0.332v-0.152C16.173,11.966,16.071,11.991,15.995,12.118z M16.122,4.438c0.281,0,0.51-0.051,0.816-0.178
		c-0.051-0.103-0.408-0.307-0.484-0.307C16.326,3.954,16.122,4.312,16.122,4.438z M16.25,13.573c0.178,0,0.382-0.052,0.382-0.256
		c0-0.025-0.025-0.076-0.025-0.102C16.428,13.241,16.25,13.368,16.25,13.573z M16.99,15.001c0.281,0,0.281-0.638,0.281-0.816h-0.842
		C16.428,14.39,16.836,15.001,16.99,15.001z M19.592,15.282c0.612,0.332,1.276,0.102,1.888,0.459c0.178,0,0.893,0.025,1.021,0.025
		c3.01,0,4.363-0.51,5.128-3.342c0-0.281,0.025-1.658,0.025-1.939c0-2.193,0.102-5.256-1.735-6.863
		c-0.025,0.026-0.076,0.026-0.102,0.026c-0.229,0-2.449-0.843-2.755-0.843c-0.434,0-0.816,0.357-1.225,0.357
		c-0.28,0-0.306-0.178-0.561-0.178c-2.73,0-4.822,3.266-4.822,5.663c0,0.435,0.536,4.745,0.995,4.745
		c0.077,0,0.23-0.025,0.332-0.025c0.128,0,0.255,0.307,0.255,0.485c0.102,0.229,0.689,0.79,0.689,0.842
		C19.362,14.695,19.056,14.976,19.592,15.282z M17.704,3.954c0.102,0,0.332-0.255,0.332-0.332C17.551,3.47,17.5,3.47,16.938,3.47
		C17.194,3.725,17.653,3.903,17.704,3.954z M27.577,4.261c0.255,0,0.536-0.23,0.536-0.484c0-0.256-0.255-0.281-0.485-0.281
		c0,0-1.072-1.123-1.531-1.582c-0.612-0.612-3.597-0.816-4.465-0.816c-0.434,0-1.071-0.025-1.071,0.484
		c-0.077-0.127-0.306-0.306-0.383-0.306c-0.153,0-1.812,0.894-1.812,0.919l0.306,0.255h-0.969c0,0.025,0,0.025,0,0.051
		c0,0,0.179,0.663,0.867,0.663c0.204,0,0.434-0.102,0.587-0.331c-0.102-0.026-0.332-0.229-0.332-0.307
		c0-0.051,0.077-0.255,0.153-0.331c0.357,0,0.281,0.203,0.766,0.203c0.459,0,0.688-0.025,0.969-0.662
		c0.026,0.178,0.23,0.203,0.383,0.203c0.025,0,1.352-0.025,1.352-0.51c0,0.051,0.128,0.255,0.153,0.307
		c-0.025,0-0.025,0.025-0.025,0.025c0.051,0,0.459-0.153,0.561-0.205c-0.025,0,0.51,0.689,1.352,0.689
		c0.128,0,0.383-0.051,0.459-0.204c0.306,0.816,1.505,1.301,2.219,1.581C27.169,3.853,27.297,4.261,27.577,4.261z M17.704,15.308
		c0.127,0,0.28-0.051,0.332-0.204h-0.332V15.308z M19.949,16.379c0.204,0,0.536-0.103,0.536-0.356c-0.025,0-0.077,0-0.153,0
		c-0.204,0-0.511,0.025-0.562,0.203C19.771,16.251,19.898,16.379,19.949,16.379z M23.394,16.864l0.612-0.307h-0.612V16.864z
		 M27.169,15.282c-0.484,0.535-1.403,0.918-2.066,1.097c2.041,0,4.133-1.812,4.133-3.979c-0.562,0-0.995,0.255-0.995,0.816h0.51
		c-0.153,0.306-0.791,0.178-0.816,0.586c0,0.077,0.383,0.434,0.485,0.536C27.144,14.415,27.807,14.542,27.169,15.282z M28.266,6.302
		h1.276c0-0.484-0.408-2.22-1.174-2.22c-0.229,0-0.74,0.663-0.74,0.791c0,0.102,0.357,0.356,0.408,0.356
		c0.025,0,0.051,0,0.077-0.025c-0.102,0.179-0.179,0.307-0.179,0.536c0.332,0,0.383-0.306,0.74-0.306
		c0,0.025-0.586,0.535-0.586,0.714l0.025,0.025L28.266,6.302z M28.266,6.939c0.127,0,0.612-0.229,0.791-0.332
		c-0.306,0-0.918-0.051-1.097,0.179C28.011,6.812,28.215,6.939,28.266,6.939z M28.241,7.781c0,0.153,0.077,0.587,0.255,0.587
		c0.332,0,1.352-0.434,1.352-0.97c0-0.128-0.102-0.688-0.153-0.791c-0.382,0-1.148,0.435-1.582,0.791l1.25,0.383H28.241z
		 M28.394,12.169c0.179,0,0.434,0,0.485-0.203c0,0.025,0.127,0.152,0.179,0.152c0.74,0,0.816-1.709,0.816-2.271
		c0-0.076-0.025-0.331-0.025-0.383l-1.684,0.383l0.587,0.562c-0.127,0-0.51,0.102-0.51,0.229c0,0.103,0.229,0.204,0.357,0.204
		c0.23,0,0.459-0.127,0.766-0.127c-0.179,0.356-0.97,0.152-0.97,0.611c0,0.23,0.204,0.23,0.204,0.332
		C28.598,11.838,28.394,11.966,28.394,12.169z M28.98,9.159c0.077,0,0.179,0,0.255,0c0.204,0,0.765,0.051,0.765-0.307
		c0-0.204,0.025-0.663-0.204-0.663c-0.383,0-1.148,0.485-1.377,0.766C28.572,9.134,28.776,9.159,28.98,9.159z"/>
	<path fill="#40B8D1" d="M41.097,0.356c1.633,0,4.49-0.076,4.49,2.373c0,0.153-0.102,0.639-0.383,0.639
		c-0.918,0-2.118-0.791-3.316-0.791c-1.25,0-2.398,0.356-3.546,0.791c-2.857,1.045-3.316,4.285-3.316,6.939
		c0,0.102,0.025,0.535,0.025,0.637c0.357,0.128,0.332,1.404,0.459,1.71c1.072,2.475,4.184,2.832,6.557,2.832
		c1.225,0,2.475-0.944,3.062-0.944c0.23,0,0.459,0.153,0.459,0.612c0,0.894-0.179,1.938-0.485,1.938
		c-0.179,0-0.408-0.025-0.459-0.025c-1.429,0.256-2.781,0.485-4.261,0.485c-0.204,0-0.408-0.025-0.612-0.025
		c-0.102,0.204-0.714,0.331-0.944,0.331c-3.674-0.28-6.633-4.133-6.633-7.705C32.193,4.975,35.739,0.356,41.097,0.356z
		 M32.933,9.848c0,0.229,0.025,0.638,0.332,0.638c0.281,0,0.842-0.612,0.995-0.791h-1.327C32.933,9.694,32.933,9.771,32.933,9.848z
		 M33.137,9.057c0,0.026,0.025,0.255,0.025,0.28c0.332-0.203,1.327-0.79,1.327-1.301C33.673,8.036,33.137,8.139,33.137,9.057z
		 M33.316,12.042h0.306l0.816-0.791v-0.179c-0.255,0-1.276,0-1.276,0.332C33.163,11.608,33.265,12.042,33.316,12.042z
		 M33.316,10.944c0.561,0,1.123,0,1.123-0.637c0-0.077-0.229-0.18-0.255-0.18C33.877,10.128,33.341,10.562,33.316,10.944z
		 M33.622,6.531c-0.179,0-0.179,0.434-0.179,0.562c0,0.025,0,0.203,0,0.203l0.995-0.611V6.531H33.622z M33.443,7.781
		c0.536,0,1.123,0.051,1.123-0.638c0-0.025-0.102-0.153-0.127-0.153C34.234,6.99,33.75,7.398,33.443,7.781z M33.443,9.337
		c0.127,0,0.281,0.026,0.434,0.026c0.306,0,0.587-0.077,0.587-0.408c0-0.026,0-0.204-0.025-0.255
		C34.081,8.853,33.698,9.057,33.443,9.337z M40.868,16.736c1.25,0,3.164-0.229,3.776-0.612V15.64
		c-0.893,0.28-2.194,0.663-3.138,0.663c-0.127,0-1.123-0.128-1.454-0.179c-0.714-0.128-4.286-1.275-4.542-1.275l0.306-0.281
		c-0.051-0.127-0.102-0.178-0.178-0.178c-0.103,0-0.204,0.051-0.307,0.051c0-0.408,0.051-0.842-0.612-0.842
		c0.179-0.103,0.281-0.307,0.332-0.46c-0.357,0-0.434-0.28-0.434-0.562h-0.511c0.255-0.178,0.612-0.229,0.612-0.408
		c0-0.076-0.102-0.51-0.153-0.611c-0.332,0.076-0.944,0.561-0.944,0.867c0,0.102,0.332,1.046,0.357,1.046
		c0.153,0,0.281-0.077,0.459-0.204c-0.077,0.051-0.179,0.28-0.179,0.332c0,1.836,2.143,2.27,3.444,2.704h0.025
		c0.153,0,0.281-0.103,0.459-0.179C38.163,16.608,40.51,16.736,40.868,16.736z M34.081,5.511c0,0.025,0.025,0.051,0.025,0.076
		c0.255-0.127,0.868-0.332,0.868-0.688C34.643,4.898,34.081,5.179,34.081,5.511z M34.26,6.046c0.025,0.025,0.204,0.052,0.229,0.052
		c0.332,0,0.587-0.255,0.587-0.587c0-0.025-0.025-0.051-0.025-0.076C34.719,5.511,34.464,5.817,34.26,6.046z M34.566,4.821
		c1.173-0.765,1.582-0.127,1.582-1.913l-1.582,1.557V4.821z M36.582,2.96c0.357,0,0.714-0.408,0.714-0.74
		C36.888,2.22,36.582,2.525,36.582,2.96z M37.271,2.908c0.127-0.128,0.459-0.459,0.459-0.562c0-0.025-0.025-0.051-0.025-0.076
		L37.271,2.908z M38.342,2.271c0.434-0.307,1.25-0.867,1.25-0.943c-0.025,0-0.229,0-0.28,0c-0.307,0-1.123,0.535-1.123,0.611
		L38.342,2.271z M38.673,2.577c0.459-0.025,0.868-0.46,1.097-0.791c-0.025,0-0.077,0-0.077,0
		C39.312,1.786,38.801,2.424,38.673,2.577z M40.255,1.658l0.459-0.485h-0.816C39.898,1.353,40.128,1.556,40.255,1.658z
		 M40.383,1.938c0.025,0,0.153,0.025,0.179,0.025c0.255,0,0.383-0.229,0.484-0.484c-0.025,0-0.153-0.025-0.178-0.025
		C40.612,1.454,40.485,1.735,40.383,1.938z M41.353,1.353c0.127,0,0.229-0.052,0.306-0.18h-0.306V1.353z M41.505,1.786
		c0,0,0.127,0.025,0.153,0.025c0.281,0,0.459-0.357,0.459-0.639L41.505,1.786z M42.424,1.505c0.229,0,0.587-0.102,0.587-0.383
		C42.679,1.147,42.424,1.556,42.424,1.505z M42.705,2.092c0.382,0,0.638-0.408,0.689-0.765l-0.077-0.026
		C42.959,1.301,42.705,1.862,42.705,2.092z M43.674,2.194c0.306,0,0.664-0.23,0.664-0.536s-0.281-0.511-0.562-0.511
		c-0.102,0-0.255,0.332-0.255,0.511h0.306C43.725,1.837,43.674,1.964,43.674,2.194z M44.822,2.603V1.786
		c-0.204,0.127-0.332,0.357-0.332,0.561C44.49,2.525,44.644,2.603,44.822,2.603z"/>
	<path fill="#40B8D1" d="M55.332,0.356c1.633,0,4.49-0.076,4.49,2.373c0,0.153-0.102,0.639-0.383,0.639
		c-0.918,0-2.118-0.791-3.316-0.791c-1.25,0-2.398,0.356-3.546,0.791c-2.857,1.045-3.316,4.285-3.316,6.939
		c0,0.102,0.025,0.535,0.025,0.637c0.357,0.128,0.332,1.404,0.459,1.71c1.072,2.475,4.184,2.832,6.557,2.832
		c1.225,0,2.475-0.944,3.062-0.944c0.23,0,0.459,0.153,0.459,0.612c0,0.894-0.179,1.938-0.485,1.938
		c-0.179,0-0.408-0.025-0.459-0.025c-1.429,0.256-2.781,0.485-4.261,0.485c-0.204,0-0.408-0.025-0.612-0.025
		c-0.102,0.204-0.714,0.331-0.944,0.331c-3.674-0.28-6.633-4.133-6.633-7.705C46.428,4.975,49.974,0.356,55.332,0.356z
		 M47.167,9.848c0,0.229,0.025,0.638,0.332,0.638c0.281,0,0.842-0.612,0.995-0.791h-1.327C47.167,9.694,47.167,9.771,47.167,9.848z
		 M47.372,9.057c0,0.026,0.025,0.255,0.025,0.28c0.332-0.203,1.327-0.79,1.327-1.301C47.907,8.036,47.372,8.139,47.372,9.057z
		 M47.55,12.042h0.306l0.816-0.791v-0.179c-0.255,0-1.276,0-1.276,0.332C47.397,11.608,47.499,12.042,47.55,12.042z M47.55,10.944
		c0.561,0,1.123,0,1.123-0.637c0-0.077-0.229-0.18-0.255-0.18C48.111,10.128,47.576,10.562,47.55,10.944z M47.856,6.531
		c-0.179,0-0.179,0.434-0.179,0.562c0,0.025,0,0.203,0,0.203l0.995-0.611V6.531H47.856z M47.678,7.781
		c0.536,0,1.123,0.051,1.123-0.638c0-0.025-0.102-0.153-0.127-0.153C48.469,6.99,47.984,7.398,47.678,7.781z M47.678,9.337
		c0.127,0,0.281,0.026,0.434,0.026c0.306,0,0.587-0.077,0.587-0.408c0-0.026,0-0.204-0.025-0.255
		C48.315,8.853,47.933,9.057,47.678,9.337z M55.102,16.736c1.25,0,3.164-0.229,3.776-0.612V15.64
		c-0.893,0.28-2.194,0.663-3.138,0.663c-0.127,0-1.123-0.128-1.454-0.179c-0.714-0.128-4.286-1.275-4.542-1.275l0.306-0.281
		C50,14.44,49.948,14.39,49.872,14.39c-0.103,0-0.204,0.051-0.307,0.051c0-0.408,0.051-0.842-0.612-0.842
		c0.179-0.103,0.281-0.307,0.332-0.46c-0.357,0-0.434-0.28-0.434-0.562h-0.511c0.255-0.178,0.612-0.229,0.612-0.408
		c0-0.076-0.102-0.51-0.153-0.611c-0.332,0.076-0.944,0.561-0.944,0.867c0,0.102,0.332,1.046,0.357,1.046
		c0.153,0,0.281-0.077,0.459-0.204c-0.077,0.051-0.179,0.28-0.179,0.332c0,1.836,2.143,2.27,3.444,2.704h0.025
		c0.153,0,0.281-0.103,0.459-0.179C52.397,16.608,54.745,16.736,55.102,16.736z M48.315,5.511c0,0.025,0.025,0.051,0.025,0.076
		c0.255-0.127,0.868-0.332,0.868-0.688C48.877,4.898,48.315,5.179,48.315,5.511z M48.494,6.046c0.025,0.025,0.204,0.052,0.229,0.052
		c0.332,0,0.587-0.255,0.587-0.587c0-0.025-0.025-0.051-0.025-0.076C48.953,5.511,48.698,5.817,48.494,6.046z M48.8,4.821
		c1.173-0.765,1.582-0.127,1.582-1.913L48.8,4.465V4.821z M50.816,2.96c0.357,0,0.714-0.408,0.714-0.74
		C51.122,2.22,50.816,2.525,50.816,2.96z M51.505,2.908c0.127-0.128,0.459-0.459,0.459-0.562c0-0.025-0.025-0.051-0.025-0.076
		L51.505,2.908z M52.576,2.271c0.434-0.307,1.25-0.867,1.25-0.943c-0.025,0-0.229,0-0.28,0c-0.307,0-1.123,0.535-1.123,0.611
		L52.576,2.271z M52.908,2.577c0.459-0.025,0.868-0.46,1.097-0.791c-0.025,0-0.077,0-0.077,0
		C53.546,1.786,53.035,2.424,52.908,2.577z M54.49,1.658l0.459-0.485h-0.816C54.132,1.353,54.362,1.556,54.49,1.658z M54.617,1.938
		c0.025,0,0.153,0.025,0.179,0.025c0.255,0,0.383-0.229,0.484-0.484c-0.025,0-0.153-0.025-0.178-0.025
		C54.847,1.454,54.719,1.735,54.617,1.938z M55.587,1.353c0.127,0,0.229-0.052,0.306-0.18h-0.306V1.353z M55.74,1.786
		c0,0,0.127,0.025,0.153,0.025c0.281,0,0.459-0.357,0.459-0.639L55.74,1.786z M56.658,1.505c0.229,0,0.587-0.102,0.587-0.383
		C56.913,1.147,56.658,1.556,56.658,1.505z M56.939,2.092c0.382,0,0.638-0.408,0.689-0.765l-0.077-0.026
		C57.194,1.301,56.939,1.862,56.939,2.092z M57.908,2.194c0.306,0,0.664-0.23,0.664-0.536s-0.281-0.511-0.562-0.511
		c-0.102,0-0.255,0.332-0.255,0.511h0.306C57.959,1.837,57.908,1.964,57.908,2.194z M59.057,2.603V1.786
		c-0.204,0.127-0.332,0.357-0.332,0.561C58.725,2.525,58.878,2.603,59.057,2.603z"/>
	<path fill="#40B8D1" d="M63.366,17.399c-0.332,0-1.123-0.102-1.276-0.535c0-1.531,0.153-3.113,0.153-4.644
		c0-1.633,0.051-3.368-0.332-4.976V0.484h3.164c0.484,0.179,0.842,0.179,1.429,0.179c0.179,0,0.332-0.025,0.459-0.179
		c1.301,0,2.909-0.153,3.317-0.153c0.306,0,1.735,0.128,2.015,0.153c0.051,0.026,0.179,0.255,0.204,0.332
		c0,0.688-0.229,0.816-0.229,1.429c0,0.076,0.025,0.179,0.025,0.28l-0.612,0.153c-0.714-0.051-1.429-0.076-2.168-0.076
		c-1.684,0-3.444,0.152-5.051,0.561c-0.179,0.383-0.204,0.613-0.204,0.995c0,0.536,0.204,1.071,0.204,1.607
		c0,0-0.128,1.046-0.179,1.479l0.306,0.307c0.051,0,0.638,0.051,0.816,0.051c1.097,0,1.429-0.204,1.862-0.204
		c0.077,0.077,0.153,0.179,0.23,0.179c-0.026,0-0.026,0-0.026,0s0.026,0.025,0.051,0.025c0.076,0,0.204-0.051,0.204-0.255h2.857
		c0.076,0.103,0.229,0.331,0.306,0.536l0.306-0.153c-0.153,0.153-0.153,0.306-0.153,0.663c0,0.307,0,0.943,0.025,1.071l-0.332,0.28
		c-2.066,0-3.878,0.103-5.996,0.205c-0.051,0-0.153-0.025-0.255-0.025s-0.204,0.025-0.204,0.152v4.746l0.179,0.28
		c0.025,0.076,1.684,0.179,2.577,0.179c0.638,0,1.812-0.459,2.577-0.459c0.357,0,1.225,0.102,1.276,0.152l0.178,0.128
		c0.026-0.128,0.153-0.153,0.281-0.153c0.051,0,0.179,0.025,0.332,0.025l-0.28,0.128c0.025,0,0.204-0.025,0.357-0.025
		c0.332,0,0.434-0.026,0.536,0.204c0.051,0,0.281-0.179,0.332-0.179c0.28,0.179,0.357,0.484,0.357,0.816
		c0,0.587,0.026,1.454-0.357,1.862c-0.102,0-0.612,0.025-0.689,0.025c-0.791,0-1.199-0.025-1.99-0.408H63.366z M63.009,2.372
		c0.025,0,0.153,0,0.178,0c0.255,0,1.99-0.765,2.041-0.943c-0.357-0.153-0.842-0.179-1.275-0.179c-0.179,0-1.225,0-1.225,0.025
		l-0.179,0.766c0.179,0,0.536-0.153,0.816-0.306L63.009,2.372z M62.677,3.188c0.332,0,0.638-0.255,0.791-0.51c0,0-0.077,0-0.102,0
		C63.034,2.679,62.677,2.832,62.677,3.188z M62.702,4.644c0,0.051,0.026,0.203,0.026,0.229c0.536-0.435,0.765-0.663,0.765-1.327
		c0-0.051-0.025-0.332-0.025-0.383c-0.204,0.205-0.74,0.511-0.74,0.613c0,0.152,0.229,0.203,0.408,0.203
		c0.102,0,0.178-0.025,0.229-0.025C63.11,4.312,62.702,4.158,62.702,4.644z M62.728,5.97V6.99c0.332,0,0.969-0.562,0.969-0.97
		c0-0.076-0.357-0.178-0.51-0.178C63.034,5.843,62.728,5.919,62.728,5.97z M63.009,8.853l0.816-0.816V7.832
		c-0.255,0-0.995-0.025-0.995,0.332C62.83,8.419,62.906,8.572,63.009,8.853z M62.855,5.511c0.893,0,0.867-0.076,0.867-0.816
		C63.34,4.694,63.009,5.229,62.855,5.511z M62.932,13.547c0,0.179,0.025,0.307,0.025,0.307h0.229c0.077,0,0.281-0.485,0.281-0.663
		c0-0.153-0.077-0.46-0.153-0.46l-0.025,0.026C62.983,12.757,62.932,13.216,62.932,13.547z M62.983,7.577
		c0.459,0,0.842-0.127,0.842-0.663C63.442,6.914,62.983,7.169,62.983,7.577z M62.983,10.588c0.383,0,0.51-0.077,0.51-0.46
		L63.468,9.95C63.314,10.077,62.983,10.308,62.983,10.588z M63.009,9.644c0.229,0,0.536-0.102,0.536-0.383
		C63.289,9.261,63.009,9.312,63.009,9.644z M63.187,11.506c0.204-0.076,0.204-0.356,0.204-0.51c-0.077,0-0.382,0.025-0.382,0.204
		C63.009,11.226,63.136,11.455,63.187,11.506z M63.009,15.308c0.306,0,0.382-0.281,0.382-0.484h-0.382V15.308z M63.187,16.558
		c0.23-0.229,0.689-0.663,0.689-0.816h-0.408V15.46c-0.179,0.103-0.408,0.664-0.459,0.766v0.051
		C63.009,16.404,63.085,16.456,63.187,16.558z M63.11,12.526c0.357,0,0.383-0.484,0.383-0.74
		C63.085,11.786,63.11,12.221,63.11,12.526z M63.646,16.558c0.434,0,0.536-0.102,0.816-0.484
		C64.157,16.2,63.901,16.354,63.646,16.558z M64.743,9.134c0.307,0,1.021-0.205,1.021-0.613h-1.786c-0.153,0-0.179,0.23-0.179,0.332
		h0.944V9.134z M64.743,16.558c0.051,0,0.128,0.025,0.179,0.025c0.128,0,0.255-0.051,0.306-0.204c0,0-0.051,0-0.077,0
		C65.101,16.379,64.871,16.431,64.743,16.558z M65.534,2.144c0,0.051,0.051,0.051,0.077,0.051c0.204,0,0.281-0.103,0.281-0.281
		c0-0.051-0.025-0.178-0.025-0.178C65.636,1.812,65.534,2.144,65.534,2.144z M65.815,9.286c0.536,0,1.327-0.459,1.607-0.943
		c-0.051,0-0.306-0.025-0.357-0.025C66.504,8.292,65.815,8.7,65.815,9.286z M65.866,16.558c0.051,0,0.382,0.025,0.459,0.025
		c0.408,0,0.791,0,0.944-0.51c-0.025,0-0.255-0.025-0.306-0.025C66.555,16.048,66.096,16.2,65.866,16.558z M66.631,1.429h0.179
		V1.275L66.631,1.429z M67.116,9.134h0.791c0.102,0,0.178-0.664,0.178-0.791h-0.178L67.116,9.134z M67.907,16.558
		c0.127,0,0.459-0.255,0.612-0.484c0,0-0.051-0.025-0.077-0.025C68.392,16.048,68.06,16.354,67.907,16.558z M69.004,8.955h1.276
		c-0.179-0.204-0.357-0.485-0.485-0.766C69.463,8.292,69.132,8.623,69.004,8.955z M69.004,15.895c0.025,0,0.408,0.025,0.485-0.153
		c-0.025,0-0.127,0-0.153,0C69.183,15.741,69.081,15.741,69.004,15.895z M69.004,16.379c0.51,0,0.638,0,0.944-0.306v0.306
		l1.25-0.484h-1.582L69.004,16.379z M69.591,1.275c0,0.306,0.204,0.332,0.408,0.332c0.281,0,0.766-0.128,0.766-0.511h-1.148
		C69.591,1.173,69.591,1.225,69.591,1.275z M70.433,16.558v0.255c0.383,0,0.766-0.229,0.97-0.587c-0.025,0-0.153,0-0.204,0
		C71.045,16.226,70.433,16.456,70.433,16.558z M71.504,17.017c0.663,0,0.689-0.638,0.689-1.122h-0.689V17.017z"/>
	<path fill="#40B8D1" d="M83.698,14.925c0-0.638-1.327-2.117-1.735-2.704c-0.128-0.179-0.816-1.199-0.944-1.403
		c-0.74-0.153-1.046-0.179-1.76-0.179c-1.046,0-1.403,0.153-1.403,1.25c0,1.327,0.204,2.577,0.204,3.979
		c0,0.562-0.051,1.072-0.485,1.404c-0.281,0.051-1.378,0.152-1.607,0.152c-0.434,0-0.485-0.178-0.485-0.535
		c0-1.633,0.357-3.24,0.357-4.898c0-0.536-0.025-0.74-0.179-1.327V5.307c0-0.332-0.306-0.766-0.306-0.944
		c0-0.255,0.153-0.51,0.153-0.816c0-0.459-0.459-1.76-0.484-2.016c0-1.02,0.357-1.275,1.556-1.275c0.664,0,1.097,0.179,1.684,0.179
		c0.459,0,1.403-0.179,2.475-0.179c1.148,0,3.214-0.076,4.235,0.791c0.306,0.281,1.097,1.098,1.097,1.098v0.331h0.153
		c0.051,0.714,0.332,1.25,0.332,2.22c0,1.225-0.204,2.602-0.944,3.598c-0.281,0.356-1.046,1.122-1.097,1.122
		c-0.077,0-0.127-0.025-0.179-0.025c-0.383,0-0.281,0.331-0.485,0.331c-0.127,0-0.357-0.127-0.357-0.203l0.051-0.103l0.766-0.791
		c-0.026-0.025-0.255-0.051-0.306-0.051c-0.612,0-0.51,0.714-0.944,0.842c-0.127,0.025-0.791,0.255-0.944,0.306
		c0.153,0.332,0.612,0.128,0.791,0.46l-0.306,0.331h0.689c0-0.076-0.077-0.255-0.077-0.408c0-0.102,0.051-0.203,0.179-0.255
		c0.204,0.663,0.791,1.148,1.123,1.761c0.586,1.684,1.505,3.24,3.01,5.484c0,0.435-1.275,0.485-1.633,0.485
		c-1.046,0-0.561-0.919-1.097-0.919L83.698,14.925z M77.651,1.709c0.025,0,0.178-0.025,0.204-0.025l-0.459-0.484l0.179-0.153
		c-0.434-0.102-0.664-0.153-1.046-0.153c-0.229,0-0.357,0-0.561,0.153c0.102,0.127,0.281,0.357,0.408,0.357
		c0.102,0,0.204-0.051,0.204-0.204C76.937,1.454,77.243,1.709,77.651,1.709z M76.299,3.929c0,0.612,0.459,1.531,0.434,1.658
		c0.23-0.28,0.281-0.561,0.281-0.766c0-0.229-0.255-1.402-0.255-1.402C76.427,3.394,76.299,3.648,76.299,3.929z M76.478,11.302
		c0.153-0.152,0.459-0.459,0.459-0.714c0-0.204-0.178-0.28-0.357-0.28s-0.281,0.076-0.281,0.356
		C76.299,10.767,76.401,11.2,76.478,11.302z M76.988,16.481c0.332,0,0.408-1.633,0.408-1.965c0-0.255-0.025-0.562-0.229-0.562
		c-0.383,0-0.714,0.435-0.714,0.791c0,0.128,0,0.28,0.127,0.332c-0.179,0.076-0.255,0.484-0.281,0.612
		c0.255,0,0.74-0.639,0.868-0.639c0,0,0.051,0.026,0.077,0.026c-0.103,0.484-0.791,0.612-0.791,1.097
		C76.452,16.456,76.732,16.481,76.988,16.481z M76.478,9.414l0.127-0.229L76.427,8.7L76.478,9.414z M76.452,13.904
		c0,0,0.025,0.179,0.025,0.204c0.281-0.153,0.562-0.357,0.766-0.612c-0.051,0-0.281-0.025-0.307-0.025
		C76.554,13.471,76.452,13.521,76.452,13.904z M76.58,12.705c0.332-0.179,0.536-0.331,0.536-0.638c0,0-0.025-0.127-0.025-0.153
		c-0.229,0.103-0.612,0.332-0.612,0.612C76.478,12.603,76.554,12.705,76.58,12.705z M76.554,13.267c0.586,0,0.714-0.128,0.842-0.74
		c-0.025,0-0.127,0-0.153,0C76.911,12.526,76.554,12.884,76.554,13.267z M76.732,11.634c0.307,0,0.434-0.281,0.511-0.484
		C77.013,11.226,76.732,11.353,76.732,11.634z M78.876,8.343c0.918,0,1.352,0,1.964-0.204c1.735-0.255,3.189,0,3.189-1.965
		c0-0.995-0.204-1.786-0.638-2.755c-1.25-0.816-2.857-0.816-4.261-0.816c-0.638,0-1.25-0.051-1.556,0.51
		c0.127,1.046,0.153,1.353,0.153,3.164c0,0.739-0.025,1.454-0.025,1.709C77.906,8.292,78.417,8.343,78.876,8.343z M78.11,9.414
		c0.051,0,0.229-0.025,0.229-0.179h-0.484C77.932,9.389,78.034,9.414,78.11,9.414z M79.208,1.837c0.408,0,0.714,0.025,0.714-0.153
		l-0.306-0.638H78.34l-0.306,0.332C78.212,1.812,78.773,1.837,79.208,1.837z M79.003,9.134c0,0.152,1.735,0.203,1.837,0.28
		c0.153-0.077,0.204-0.204,0.204-0.357L79.003,9.134z M80.636,1.837c0.255,0,0.459-0.179,0.765-0.179c0-0.229,0-0.739-0.229-0.739
		l-1.25,0.127C80.126,1.199,80.355,1.837,80.636,1.837z M82.014,10.384c0-0.256-0.28-0.562-0.561-0.562
		C81.453,10.23,81.58,10.384,82.014,10.384z M82.601,2.144c0.179-0.307,0.077-0.485,0.306-0.766L83.06,1.53
		c0.153-0.076,0.153-0.203,0.179-0.229c0-0.025-0.051-0.255-0.179-0.255h-1.53C81.529,1.735,81.886,2.144,82.601,2.144z
		 M81.631,9.567c0,0,0.842-0.204,0.97-0.511c-0.025,0-0.281-0.025-0.332-0.025C81.963,9.031,81.631,9.134,81.631,9.567z
		 M81.963,10.944h0.306v-0.127h-0.306V10.944z M83.749,11.634c0-0.51-0.408-0.51-0.867-0.51c-0.204,0-0.459,0.025-0.459,0.229
		c0,0.025,0.025,0.077,0.025,0.103C82.855,11.558,83.29,11.634,83.749,11.634z M82.907,12.118c0.153,0,0.536,0,0.638-0.204h-0.638
		V12.118z M85.892,4.057c0-0.026,0.025-0.052,0.025-0.103c0-0.586-0.816-2.449-1.607-2.576c-0.127-0.025-0.638-0.128-0.766-0.179
		c-0.204,0.204-0.229,0.79-0.229,1.097c0,0.128,0,0.204,0,0.204c0.408,0,0.612-0.153,0.969-0.153c0,0.025,0.026,0.077,0.026,0.103
		c0,0.051-0.383,0.434-0.459,0.484l0.153,0.179l1.403,0.307c0,0,0.025,0.051,0.025,0.076c0,0.153-0.153,0.281-0.306,0.281v0.102
		L85.892,4.057z M84.973,15.562c0.179,0.306,0.74,1.097,0.766,1.097h0.485c-0.307-0.994-0.868-1.581-1.25-2.372
		c-0.281-0.408-0.74-2.144-1.123-2.22c-0.076,0.051-0.459,0.179-0.459,0.332c0.153,0,0.459,0.102,0.459,0.203
		c0,0.205-0.179,0.205-0.179,0.435c0,0.204,0.077,0.306,0.332,0.306c0.051,0,0.102-0.025,0.179-0.025l-0.332,0.179
		c0,0.255,0.051,0.331,0.128,0.331c0.102,0,0.255-0.102,0.382-0.102C84.361,14.44,84.54,14.849,84.973,15.562z M84.004,8.139h0.51
		c0-0.026-0.127-0.153-0.204-0.153C84.259,7.985,84.029,8.112,84.004,8.139z M84.055,3.419c0,0.076,0.025,0.152,0.128,0.152
		c0.051,0,0.102-0.076,0.102-0.152c0-0.077-0.051-0.153-0.102-0.153C84.08,3.266,84.055,3.342,84.055,3.419z M85.331,6.71
		c0.586,0,0.586-1.735,0.586-2.016h-0.408c0-0.051-0.102-0.128-0.102-0.179c0,0,0.306-0.128,0.332-0.153
		c-0.383-0.229-0.97-0.229-1.352-0.229c0,0.511,0.663,1.403,1.021,1.658c0,0.052-0.077,0.153-0.128,0.153
		c-0.229,0-0.306-0.204-0.561-0.204C84.718,6.174,84.769,6.71,85.331,6.71z M84.591,7.73c0.332,0,0.536-0.077,0.536-0.435
		C84.846,7.296,84.591,7.373,84.591,7.73z"/>
	<path fill="#003F77" d="M96.171,12.985c0-0.356,0-1.25,0-1.326l-0.153-0.153V1.454c-0.178-0.051-0.204-0.204-0.204-0.357
		c0-0.152-0.051-0.535,0.357-0.612c0.051,0,0.714,0.153,0.766,0.153c0.076,0,0.306-0.102,0.357-0.153v0.128
		c2.475,0,4.949-0.281,7.449-0.281c0.588,0,1.812,0.077,1.812,0.766v1.607c0,0.128-0.18,0.128-0.281,0.128
		c-1.326,0-2.628-0.128-3.955-0.128c-0.356,0-0.662,0.128-1.045,0.128c-0.332,0-2.756-0.46-2.756,0.331v2.066
		c-0.025,0-0.127,0.23-0.127,0.281c0,0.715,0.025,1.965,0.28,2.22c0.919,0.153,2.015,0.179,3.062,0.179
		c0.611,0,1.174-0.025,1.684-0.025c0.076,0,0.943,0.51,1.123,0.51c0.076,0,0.254-0.204,0.459-0.204c0.025,0,0.127,0.103,0.127,0.179
		c-0.459,0.638-0.306,0.638-0.459,1.403c-0.076,0.331-1.275,0.356-1.811,0.356c-1.328,0-2.221-0.51-3.547-0.51
		c-0.332,0-0.357-0.153-0.459-0.153c-0.561,0-0.638,0.128-0.638,0.688c0,0.435,0.077,2.884,0.306,2.935v4.388
		c0,0.281-0.281,0.332-0.459,0.332c-0.127,0-0.229-0.051-0.306-0.152c-0.103,0-0.816,0.306-1.378,0.306
		c-0.179,0-0.536-0.434-0.536-0.612C95.839,15.971,96.171,14.39,96.171,12.985z M97.523,7.884c0.127,0,0.383-0.256,0.383-0.332
		c0-0.229-0.51-0.74-0.612-0.766c0.077,0.025,0.153,0.051,0.204,0.051c0.229,0,0.255-0.229,0.255-0.383
		c0-0.383-0.179-0.434-0.179-0.611c0-0.715,0.51-1.557,0.51-2.348c-0.332,0-0.689-0.076-0.97-0.179c0-0.153,0.434-0.204,0.791-0.204
		V2.397c-0.153,0-0.434,0-0.51-0.203c0.332,0,0.357-0.077,0.357-0.256c0-0.178,0-0.306-0.179-0.357l0.179-0.127h-1.301
		c0,0.281,0.408,0.535,0.663,0.612c-0.408,0-0.485,0.051-0.485,0.306c0,0.281,0.179,0.588,0.179,0.919
		c0,0.587-0.102,1.021,0.485,1.429h-0.51c0.562,0.943-0.025,0.816-0.025,1.403c0,0.153,0,0.511,0.255,0.511
		c0.025,0,0.051,0,0.102-0.026c-0.077-0.025-0.127-0.025-0.178-0.025c-0.281,0-0.332,0.204-0.332,0.434
		c0,0.128,0.025,0.408,0.255,0.408c0.025,0,0.051-0.025,0.077-0.025c0,0.103-0.204,0.179-0.204,0.229
		c0,0.025,0.051,0.103,0.051,0.103C96.885,7.781,97.345,7.884,97.523,7.884z M96.937,8.547c0.28,0,0.484-0.153,0.638-0.357
		c-0.255-0.128-0.638-0.179-0.97-0.179C96.604,8.24,96.656,8.547,96.937,8.547z M97.472,9.873c0-0.434-0.204-0.434-0.204-0.842
		c0-0.331,0.332-0.179,0.332-0.459c0,0-0.025-0.025-0.025-0.052c-0.255,0.128-0.944,0.357-0.944,0.843
		c0,0.025,0.026,0.076,0.026,0.102C96.707,9.797,97.268,9.873,97.472,9.873z M96.911,17.093c0.97,0,1.072-0.714,1.072-1.505
		c0,0.026,0-0.025,0-0.076c0-0.128,0-0.383,0-0.638c0-0.383-0.025-0.791-0.077-0.867l-0.51-0.205h0.562
		c0-0.051,0.025-0.102,0.025-0.152c0-0.408-0.229-1.199-0.229-1.812c-0.332-0.229-0.638-0.383-0.995-0.383
		c0,0.331-0.025,0.766-0.025,1.199c0,0.893,0.102,1.812,0.842,2.066h-0.638v1.505l0.178,0.153
		C96.885,16.481,96.911,16.94,96.911,17.093z M97.65,11.353c0-0.765-0.28-0.688-0.28-1.25h-0.612
		C96.758,10.919,96.758,11.353,97.65,11.353z M98.391,9.134c0.332,0,1.403,0.025,1.709-0.459C99.947,8.7,99.819,8.7,99.691,8.7
		c-0.765,0-1.148-0.23-1.888-0.23C97.804,8.98,98.135,8.827,98.391,9.134z M98.85,2.194c0.077,0.025,0.153,0.025,0.204,0.025
		c0.204,0,0.255-0.103,0.255-0.281c0-0.152,0-0.306-0.153-0.357C98.952,1.684,98.875,2.066,98.85,2.194z M100.252,8.98h0.791
		c0-0.28-0.102-0.332-0.306-0.332C100.508,8.648,100.407,8.751,100.252,8.98z M101.708,9.312c0.535,0,0.611-0.203,0.611-0.663
		c-0.383,0-0.893,0.103-1.122,0.485C101.35,9.312,101.528,9.312,101.708,9.312z M101.657,1.761c0.331,0,0.688-0.281,0.994-0.485
		h-1.097c-0.077,0-0.204,0.229-0.204,0.306C101.35,1.761,101.58,1.761,101.657,1.761z M102.779,9.337c0.306,0,0.97-0.051,0.97-0.484
		h-0.97V9.337z M103.875,1.735c0.179-0.103,0.816-0.256,0.816-0.639h-0.816c-0.025,0-0.152,0.357-0.152,0.484
		C103.723,1.633,103.85,1.735,103.875,1.735z M105.967,1.989c0-0.356-0.025-0.561-0.357-0.561c-0.229,0-0.331,0.051-0.484,0.307
		C105.125,1.888,105.559,1.989,105.967,1.989z"/>
	<path fill="#003F77" d="M110.711,16.073h-0.127c-0.052,0-0.843-0.562-1.123-0.791c-0.867-0.689-1.914-3.776-1.914-5.077
		c0-0.077,0-0.179,0.025-0.255c-0.051,0-0.152-0.128-0.152-0.205c0-0.586,0.229-1.377,0.307-2.015
		c0.382-3.419,1.453-5.001,4.26-6.786c0.025,0,0.051,0.025,0.076,0.025c0.485,0,2.5-0.639,3.189-0.639c0.102,0,0.562,0,0.664,0
		c0,0.025,3.111,0.588,3.597,0.766c0.356,0.153,0.688,0.204,0.97,0.484c2.398,2.424,3.316,3.776,3.316,6.991
		c0,1.812-0.484,3.342-0.791,4.949c-0.127,0.688-0.612,0.663-0.612,1.403c0,0.102,0,0.153-0.025,0.179
		c-1.199,2.144-4.516,2.372-6.302,2.372l-2.984-0.306L110.711,16.073z M108.186,10.128c0.459,0,0.688-0.383,0.688-0.791
		C108.313,9.363,108.186,9.644,108.186,10.128z M108.211,8.189c0.025,0,0.127,0.025,0.152,0.025c0.18,0,0.664-0.128,0.664-0.434
		c0-0.204-0.434-0.408-0.613-0.408C108.415,7.653,108.389,7.985,108.211,8.189z M108.517,10.843c0.026,0,0.255,0.025,0.306,0.025
		c0.256,0,0.485-0.025,0.485-0.307c0-0.102,0-0.331-0.179-0.331C108.848,10.23,108.594,10.716,108.517,10.843z M108.772,6.021
		c0.281,0,0.484-0.051,0.689-0.178c-0.076-0.128-0.383-0.332-0.459-0.332C108.772,5.511,108.772,5.97,108.772,6.021z M109.129,6.939
		c0.179,0,0.204-0.306,0.204-0.357c-0.153,0-0.434,0-0.511,0.204C108.875,6.812,109.079,6.939,109.129,6.939z M109.002,13.394
		l0.306-0.306c0-0.051-0.128-0.179-0.179-0.179s-0.255,0.128-0.307,0.179C108.977,13.165,109.002,13.241,109.002,13.394z
		 M109.308,12.118h0.331v-0.152C109.487,11.966,109.385,11.991,109.308,12.118z M109.436,4.438c0.28,0,0.51-0.051,0.816-0.178
		c-0.051-0.103-0.408-0.307-0.484-0.307C109.639,3.954,109.436,4.312,109.436,4.438z M109.563,13.573
		c0.179,0,0.383-0.052,0.383-0.256c0-0.025-0.025-0.076-0.025-0.102C109.742,13.241,109.563,13.368,109.563,13.573z M110.303,15.001
		c0.281,0,0.281-0.638,0.281-0.816h-0.843C109.742,14.39,110.15,15.001,110.303,15.001z M112.905,15.282
		c0.613,0.332,1.276,0.102,1.889,0.459c0.178,0,0.893,0.025,1.021,0.025c3.011,0,4.362-0.51,5.128-3.342
		c0-0.281,0.025-1.658,0.025-1.939c0-2.193,0.102-5.256-1.734-6.863c-0.025,0.026-0.076,0.026-0.103,0.026
		c-0.229,0-2.449-0.843-2.755-0.843c-0.434,0-0.816,0.357-1.225,0.357c-0.281,0-0.307-0.178-0.562-0.178
		c-2.729,0-4.821,3.266-4.821,5.663c0,0.435,0.535,4.745,0.994,4.745c0.076,0,0.23-0.025,0.332-0.025
		c0.127,0,0.255,0.307,0.255,0.485c0.103,0.229,0.688,0.79,0.688,0.842C112.676,14.695,112.37,14.976,112.905,15.282z
		 M111.018,3.954c0.102,0,0.331-0.255,0.331-0.332c-0.485-0.152-0.536-0.152-1.097-0.152C110.507,3.725,110.966,3.903,111.018,3.954
		z M120.891,4.261c0.255,0,0.535-0.23,0.535-0.484c0-0.256-0.255-0.281-0.484-0.281c0,0-1.072-1.123-1.531-1.582
		c-0.611-0.612-3.597-0.816-4.465-0.816c-0.434,0-1.07-0.025-1.07,0.484c-0.077-0.127-0.307-0.306-0.383-0.306
		c-0.154,0-1.812,0.894-1.812,0.919l0.307,0.255h-0.969c0,0.025,0,0.025,0,0.051c0,0,0.178,0.663,0.867,0.663
		c0.203,0,0.434-0.102,0.586-0.331c-0.102-0.026-0.331-0.229-0.331-0.307c0-0.051,0.077-0.255,0.153-0.331
		c0.357,0,0.28,0.203,0.766,0.203c0.459,0,0.688-0.025,0.969-0.662c0.025,0.178,0.23,0.203,0.383,0.203
		c0.025,0,1.352-0.025,1.352-0.51c0,0.051,0.129,0.255,0.154,0.307c-0.025,0-0.025,0.025-0.025,0.025
		c0.051,0,0.459-0.153,0.561-0.205c-0.025,0,0.51,0.689,1.352,0.689c0.129,0,0.383-0.051,0.46-0.204
		c0.306,0.816,1.505,1.301,2.22,1.581C120.483,3.853,120.61,4.261,120.891,4.261z M111.018,15.308c0.127,0,0.279-0.051,0.331-0.204
		h-0.331V15.308z M113.262,16.379c0.205,0,0.536-0.103,0.536-0.356c-0.025,0-0.077,0-0.153,0c-0.203,0-0.51,0.025-0.561,0.203
		C113.084,16.251,113.211,16.379,113.262,16.379z M116.708,16.864l0.611-0.307h-0.611V16.864z M120.483,15.282
		c-0.484,0.535-1.403,0.918-2.066,1.097c2.041,0,4.133-1.812,4.133-3.979c-0.562,0-0.995,0.255-0.995,0.816h0.511
		c-0.154,0.306-0.791,0.178-0.816,0.586c0,0.077,0.383,0.434,0.484,0.536C120.458,14.415,121.121,14.542,120.483,15.282z
		 M121.58,6.302h1.276c0-0.484-0.408-2.22-1.174-2.22c-0.23,0-0.74,0.663-0.74,0.791c0,0.102,0.357,0.356,0.408,0.356
		c0.025,0,0.051,0,0.076-0.025c-0.102,0.179-0.178,0.307-0.178,0.536c0.331,0,0.383-0.306,0.739-0.306
		c0,0.025-0.587,0.535-0.587,0.714l0.025,0.025L121.58,6.302z M121.58,6.939c0.128,0,0.612-0.229,0.791-0.332
		c-0.306,0-0.919-0.051-1.097,0.179C121.325,6.812,121.529,6.939,121.58,6.939z M121.554,7.781c0,0.153,0.077,0.587,0.255,0.587
		c0.332,0,1.353-0.434,1.353-0.97c0-0.128-0.103-0.688-0.153-0.791c-0.383,0-1.148,0.435-1.582,0.791l1.25,0.383H121.554z
		 M121.708,12.169c0.178,0,0.434,0,0.484-0.203c0,0.025,0.127,0.152,0.179,0.152c0.739,0,0.816-1.709,0.816-2.271
		c0-0.076-0.025-0.331-0.025-0.383l-1.685,0.383l0.588,0.562c-0.128,0-0.511,0.102-0.511,0.229c0,0.103,0.229,0.204,0.356,0.204
		c0.23,0,0.46-0.127,0.766-0.127c-0.178,0.356-0.969,0.152-0.969,0.611c0,0.23,0.203,0.23,0.203,0.332
		C121.911,11.838,121.708,11.966,121.708,12.169z M122.293,9.159c0.077,0,0.18,0,0.256,0c0.204,0,0.766,0.051,0.766-0.307
		c0-0.204,0.025-0.663-0.205-0.663c-0.383,0-1.147,0.485-1.377,0.766C121.885,9.134,122.09,9.159,122.293,9.159z"/>
	<path fill="#003F77" d="M135.099,14.925c0-0.638-1.327-2.117-1.735-2.704c-0.127-0.179-0.816-1.199-0.943-1.403
		c-0.74-0.153-1.047-0.179-1.761-0.179c-1.046,0-1.403,0.153-1.403,1.25c0,1.327,0.205,2.577,0.205,3.979
		c0,0.562-0.052,1.072-0.485,1.404c-0.28,0.051-1.378,0.152-1.607,0.152c-0.434,0-0.485-0.178-0.485-0.535
		c0-1.633,0.357-3.24,0.357-4.898c0-0.536-0.025-0.74-0.178-1.327V5.307c0-0.332-0.307-0.766-0.307-0.944
		c0-0.255,0.152-0.51,0.152-0.816c0-0.459-0.459-1.76-0.484-2.016c0-1.02,0.357-1.275,1.557-1.275c0.664,0,1.098,0.179,1.684,0.179
		c0.459,0,1.403-0.179,2.475-0.179c1.148,0,3.215-0.076,4.235,0.791c0.306,0.281,1.097,1.098,1.097,1.098v0.331h0.154
		c0.051,0.714,0.331,1.25,0.331,2.22c0,1.225-0.204,2.602-0.944,3.598c-0.28,0.356-1.046,1.122-1.097,1.122
		c-0.077,0-0.128-0.025-0.179-0.025c-0.383,0-0.281,0.331-0.484,0.331c-0.128,0-0.357-0.127-0.357-0.203l0.051-0.103l0.766-0.791
		c-0.025-0.025-0.256-0.051-0.307-0.051c-0.611,0-0.51,0.714-0.943,0.842c-0.128,0.025-0.791,0.255-0.944,0.306
		c0.153,0.332,0.612,0.128,0.791,0.46l-0.306,0.331h0.688c0-0.076-0.077-0.255-0.077-0.408c0-0.102,0.051-0.203,0.18-0.255
		c0.203,0.663,0.791,1.148,1.122,1.761c0.587,1.684,1.505,3.24,3.011,5.484c0,0.435-1.275,0.485-1.633,0.485
		c-1.047,0-0.562-0.919-1.098-0.919L135.099,14.925z M129.053,1.709c0.025,0,0.178-0.025,0.203-0.025l-0.459-0.484l0.179-0.153
		c-0.435-0.102-0.663-0.153-1.046-0.153c-0.23,0-0.357,0-0.562,0.153c0.103,0.127,0.28,0.357,0.408,0.357
		c0.103,0,0.204-0.051,0.204-0.204C128.338,1.454,128.645,1.709,129.053,1.709z M127.7,3.929c0,0.612,0.46,1.531,0.434,1.658
		c0.23-0.28,0.281-0.561,0.281-0.766c0-0.229-0.255-1.402-0.255-1.402C127.829,3.394,127.7,3.648,127.7,3.929z M127.879,11.302
		c0.152-0.152,0.459-0.459,0.459-0.714c0-0.204-0.179-0.28-0.357-0.28s-0.281,0.076-0.281,0.356
		C127.7,10.767,127.802,11.2,127.879,11.302z M128.389,16.481c0.332,0,0.408-1.633,0.408-1.965c0-0.255-0.025-0.562-0.229-0.562
		c-0.383,0-0.714,0.435-0.714,0.791c0,0.128,0,0.28,0.127,0.332c-0.179,0.076-0.256,0.484-0.281,0.612
		c0.256,0,0.74-0.639,0.868-0.639c0,0,0.051,0.026,0.077,0.026c-0.104,0.484-0.791,0.612-0.791,1.097
		C127.854,16.456,128.133,16.481,128.389,16.481z M127.879,9.414l0.127-0.229L127.829,8.7L127.879,9.414z M127.854,13.904
		c0,0,0.025,0.179,0.025,0.204c0.28-0.153,0.561-0.357,0.766-0.612c-0.052,0-0.281-0.025-0.307-0.025
		C127.956,13.471,127.854,13.521,127.854,13.904z M127.981,12.705c0.332-0.179,0.535-0.331,0.535-0.638c0,0-0.025-0.127-0.025-0.153
		c-0.229,0.103-0.611,0.332-0.611,0.612C127.879,12.603,127.956,12.705,127.981,12.705z M127.956,13.267
		c0.586,0,0.715-0.128,0.842-0.74c-0.025,0-0.127,0-0.152,0C128.313,12.526,127.956,12.884,127.956,13.267z M128.133,11.634
		c0.307,0,0.435-0.281,0.512-0.484C128.415,11.226,128.133,11.353,128.133,11.634z M130.278,8.343c0.918,0,1.352,0,1.964-0.204
		c1.735-0.255,3.188,0,3.188-1.965c0-0.995-0.203-1.786-0.637-2.755c-1.25-0.816-2.857-0.816-4.262-0.816
		c-0.637,0-1.25-0.051-1.556,0.51c0.128,1.046,0.153,1.353,0.153,3.164c0,0.739-0.025,1.454-0.025,1.709
		C129.307,8.292,129.818,8.343,130.278,8.343z M129.512,9.414c0.051,0,0.229-0.025,0.229-0.179h-0.484
		C129.333,9.389,129.435,9.414,129.512,9.414z M130.609,1.837c0.408,0,0.714,0.025,0.714-0.153l-0.306-0.638h-1.276l-0.306,0.332
		C129.614,1.812,130.174,1.837,130.609,1.837z M130.405,9.134c0,0.152,1.734,0.203,1.837,0.28c0.153-0.077,0.204-0.204,0.204-0.357
		L130.405,9.134z M132.038,1.837c0.255,0,0.459-0.179,0.766-0.179c0-0.229,0-0.739-0.23-0.739l-1.25,0.127
		C131.528,1.199,131.756,1.837,132.038,1.837z M133.415,10.384c0-0.256-0.279-0.562-0.561-0.562
		C132.854,10.23,132.981,10.384,133.415,10.384z M134.002,2.144c0.178-0.307,0.076-0.485,0.306-0.766l0.153,0.152
		c0.152-0.076,0.152-0.203,0.178-0.229c0-0.025-0.051-0.255-0.178-0.255h-1.531C132.93,1.735,133.288,2.144,134.002,2.144z
		 M133.032,9.567c0,0,0.843-0.204,0.971-0.511c-0.025,0-0.281-0.025-0.332-0.025C133.364,9.031,133.032,9.134,133.032,9.567z
		 M133.364,10.944h0.307v-0.127h-0.307V10.944z M135.15,11.634c0-0.51-0.408-0.51-0.867-0.51c-0.204,0-0.46,0.025-0.46,0.229
		c0,0.025,0.025,0.077,0.025,0.103C134.256,11.558,134.691,11.634,135.15,11.634z M134.308,12.118c0.153,0,0.536,0,0.638-0.204
		h-0.638V12.118z M137.293,4.057c0-0.026,0.025-0.052,0.025-0.103c0-0.586-0.816-2.449-1.607-2.576
		c-0.127-0.025-0.639-0.128-0.766-0.179c-0.204,0.204-0.229,0.79-0.229,1.097c0,0.128,0,0.204,0,0.204
		c0.408,0,0.612-0.153,0.97-0.153c0,0.025,0.025,0.077,0.025,0.103c0,0.051-0.383,0.434-0.459,0.484l0.152,0.179l1.404,0.307
		c0,0,0.025,0.051,0.025,0.076c0,0.153-0.154,0.281-0.307,0.281v0.102L137.293,4.057z M136.375,15.562
		c0.179,0.306,0.739,1.097,0.766,1.097h0.485c-0.307-0.994-0.868-1.581-1.251-2.372c-0.28-0.408-0.739-2.144-1.122-2.22
		c-0.076,0.051-0.459,0.179-0.459,0.332c0.152,0,0.459,0.102,0.459,0.203c0,0.205-0.18,0.205-0.18,0.435
		c0,0.204,0.077,0.306,0.332,0.306c0.051,0,0.103-0.025,0.18-0.025l-0.332,0.179c0,0.255,0.051,0.331,0.127,0.331
		c0.102,0,0.256-0.102,0.383-0.102C135.762,14.44,135.941,14.849,136.375,15.562z M135.405,8.139h0.511
		c0-0.026-0.128-0.153-0.204-0.153C135.661,7.985,135.43,8.112,135.405,8.139z M135.456,3.419c0,0.076,0.025,0.152,0.129,0.152
		c0.051,0,0.102-0.076,0.102-0.152c0-0.077-0.051-0.153-0.102-0.153C135.481,3.266,135.456,3.342,135.456,3.419z M136.732,6.71
		c0.587,0,0.587-1.735,0.587-2.016h-0.408c0-0.051-0.102-0.128-0.102-0.179c0,0,0.305-0.128,0.331-0.153
		c-0.383-0.229-0.97-0.229-1.353-0.229c0,0.511,0.664,1.403,1.021,1.658c0,0.052-0.077,0.153-0.129,0.153
		c-0.229,0-0.306-0.204-0.561-0.204C136.12,6.174,136.17,6.71,136.732,6.71z M135.993,7.73c0.331,0,0.535-0.077,0.535-0.435
		C136.247,7.296,135.993,7.373,135.993,7.73z"/>
	<path fill="#003F77" d="M155.022,0.356c1.633,0,4.49-0.076,4.49,2.373c0,0.153-0.102,0.639-0.383,0.639
		c-0.918,0-2.117-0.791-3.316-0.791c-1.25,0-2.398,0.356-3.547,0.791c-2.857,1.045-3.316,4.285-3.316,6.939
		c0,0.102,0.025,0.535,0.025,0.637c0.357,0.128,0.332,1.404,0.459,1.71c1.072,2.475,4.185,2.832,6.557,2.832
		c1.225,0,2.476-0.944,3.062-0.944c0.229,0,0.459,0.153,0.459,0.612c0,0.894-0.179,1.938-0.484,1.938
		c-0.18,0-0.408-0.025-0.459-0.025c-1.43,0.256-2.781,0.485-4.262,0.485c-0.203,0-0.408-0.025-0.611-0.025
		c-0.103,0.204-0.715,0.331-0.944,0.331c-3.674-0.28-6.634-4.133-6.634-7.705C146.118,4.975,149.665,0.356,155.022,0.356z
		 M146.858,9.848c0,0.229,0.025,0.638,0.332,0.638c0.28,0,0.842-0.612,0.994-0.791h-1.326
		C146.858,9.694,146.858,9.771,146.858,9.848z M147.062,9.057c0,0.026,0.025,0.255,0.025,0.28c0.331-0.203,1.327-0.79,1.327-1.301
		C147.598,8.036,147.062,8.139,147.062,9.057z M147.241,12.042h0.307l0.816-0.791v-0.179c-0.256,0-1.276,0-1.276,0.332
		C147.087,11.608,147.19,12.042,147.241,12.042z M147.241,10.944c0.561,0,1.123,0,1.123-0.637c0-0.077-0.23-0.18-0.256-0.18
		C147.801,10.128,147.266,10.562,147.241,10.944z M147.547,6.531c-0.18,0-0.18,0.434-0.18,0.562c0,0.025,0,0.203,0,0.203
		l0.996-0.611V6.531H147.547z M147.368,7.781c0.536,0,1.123,0.051,1.123-0.638c0-0.025-0.102-0.153-0.127-0.153
		C148.159,6.99,147.674,7.398,147.368,7.781z M147.368,9.337c0.128,0,0.281,0.026,0.434,0.026c0.307,0,0.588-0.077,0.588-0.408
		c0-0.026,0-0.204-0.025-0.255C148.006,8.853,147.624,9.057,147.368,9.337z M154.792,16.736c1.25,0,3.163-0.229,3.776-0.612V15.64
		c-0.894,0.28-2.195,0.663-3.139,0.663c-0.127,0-1.123-0.128-1.454-0.179c-0.714-0.128-4.286-1.275-4.542-1.275l0.307-0.281
		c-0.051-0.127-0.102-0.178-0.178-0.178c-0.104,0-0.205,0.051-0.307,0.051c0-0.408,0.051-0.842-0.613-0.842
		c0.18-0.103,0.281-0.307,0.332-0.46c-0.357,0-0.434-0.28-0.434-0.562h-0.51c0.255-0.178,0.611-0.229,0.611-0.408
		c0-0.076-0.102-0.51-0.152-0.611c-0.332,0.076-0.943,0.561-0.943,0.867c0,0.102,0.331,1.046,0.356,1.046
		c0.153,0,0.28-0.077,0.46-0.204c-0.077,0.051-0.18,0.28-0.18,0.332c0,1.836,2.144,2.27,3.445,2.704h0.025
		c0.152,0,0.28-0.103,0.459-0.179C152.088,16.608,154.435,16.736,154.792,16.736z M148.006,5.511c0,0.025,0.025,0.051,0.025,0.076
		c0.255-0.127,0.867-0.332,0.867-0.688C148.567,4.898,148.006,5.179,148.006,5.511z M148.184,6.046
		c0.025,0.025,0.205,0.052,0.23,0.052c0.332,0,0.586-0.255,0.586-0.587c0-0.025-0.025-0.051-0.025-0.076
		C148.643,5.511,148.389,5.817,148.184,6.046z M148.491,4.821c1.174-0.765,1.582-0.127,1.582-1.913l-1.582,1.557V4.821z
		 M150.506,2.96c0.357,0,0.715-0.408,0.715-0.74C150.813,2.22,150.506,2.525,150.506,2.96z M151.196,2.908
		c0.127-0.128,0.459-0.459,0.459-0.562c0-0.025-0.025-0.051-0.025-0.076L151.196,2.908z M152.266,2.271
		c0.434-0.307,1.25-0.867,1.25-0.943c-0.025,0-0.229,0-0.279,0c-0.307,0-1.123,0.535-1.123,0.611L152.266,2.271z M152.598,2.577
		c0.459-0.025,0.867-0.46,1.098-0.791c-0.025,0-0.077,0-0.077,0C153.237,1.786,152.725,2.424,152.598,2.577z M154.18,1.658
		l0.459-0.485h-0.816C153.823,1.353,154.053,1.556,154.18,1.658z M154.307,1.938c0.025,0,0.154,0.025,0.18,0.025
		c0.254,0,0.383-0.229,0.484-0.484c-0.025,0-0.153-0.025-0.179-0.025C154.538,1.454,154.41,1.735,154.307,1.938z M155.278,1.353
		c0.127,0,0.229-0.052,0.305-0.18h-0.305V1.353z M155.43,1.786c0,0,0.127,0.025,0.152,0.025c0.281,0,0.46-0.357,0.46-0.639
		L155.43,1.786z M156.348,1.505c0.23,0,0.588-0.102,0.588-0.383C156.604,1.147,156.348,1.556,156.348,1.505z M156.629,2.092
		c0.383,0,0.638-0.408,0.689-0.765l-0.077-0.026C156.884,1.301,156.629,1.862,156.629,2.092z M157.598,2.194
		c0.307,0,0.664-0.23,0.664-0.536s-0.281-0.511-0.562-0.511c-0.103,0-0.255,0.332-0.255,0.511h0.307
		C157.65,1.837,157.598,1.964,157.598,2.194z M158.747,2.603V1.786c-0.203,0.127-0.332,0.357-0.332,0.561
		C158.415,2.525,158.569,2.603,158.747,2.603z"/>
	<path fill="#003F77" d="M161.704,3.954c-0.178-0.612-0.203-1.301-0.203-1.938c0-0.255,0.025-1.174,0.025-1.378l0.178-0.127h1.889
		c0.051,0,0.357,0.306,0.357,0.306c0,0.051-0.205,0.153-0.205,0.306c0,0.689,0.307,1.735,0.332,2.348
		c0,0.28,0.025,0.969,0.025,1.658c0,0.918-0.025,1.734-0.025,1.76c0,0.18,0.051,0.23,0.179,0.23c0.051,0,0.128-0.025,0.229-0.025
		c0.74,0,1.123,0.178,2.398,0.178c0.715,0,1.479-0.178,1.734-0.178c0.791,0,1.531,0.178,2.297,0.178c0.918,0,2.041-0.229,2.908-0.51
		c0-0.229,0.025-1.352,0.025-1.633c0-1.25-0.204-2.449-0.204-3.699c0-0.944,0.103-0.715,1.275-1.098c0.435,0,0.562,0.511,0.97,0.511
		c0,0.103-0.102,0.229-0.204,0.28c0,0.128,0,0.664,0,0.766c0,1.072,0.485,2.22,0.485,3.164c0,0.051-0.154,0.459-0.154,0.484
		c0,0.715,0.18,1.301,0.18,1.888c0,0.255-0.025,0.536-0.025,0.612c0.254,0.025,0.356,2.96,0.356,3.342
		c0,0.128,0.025,0.588-0.179,0.613v5.179c0,0.153-0.204,0.179-0.357,0.179c-0.611,0-1.811-0.408-2.321-0.484
		c-0.229-0.025-0.255-0.664-0.255-1.531c0-0.715,0.025-1.582,0.025-2.424c0-2.729,0.127-3.266-2.934-3.266
		c-0.051-0.127-0.154-0.229-0.256-0.229c-0.051,0-0.203,0.179-0.203,0.306h-2.067l-3.903-0.28l-0.332,0.204
		c0,0-0.025,0.791-0.025,1.072c0,2.244,0.357,4.541,0.357,6.812c0,0.255-0.281,0.28-0.484,0.28c-0.613,0-1.353-0.484-1.735-0.943
		C161.78,15.154,161.704,8.598,161.704,3.954z M162.342,1.888l0.459-0.612c0-0.076-0.205-0.179-0.383-0.179
		c-0.076,0-0.408,0-0.408,0.179C162.01,1.403,162.137,1.812,162.342,1.888z M162.163,3.47c0.205-0.179,0.639-0.536,0.639-0.944
		C162.368,2.679,162.163,2.96,162.163,3.47z M162.418,5.204c0.229,0,0.816-0.893,0.842-0.918c0-0.076-0.102-0.179-0.179-0.179
		c-0.459,0-0.919,0.28-0.919,0.791C162.163,5.052,162.24,5.204,162.418,5.204z M162.342,7.093c0.484-0.357,0.816-0.485,0.918-1.098
		c-0.051,0-0.307-0.025-0.357-0.025c-0.28,0-0.74-0.025-0.74,0.332C162.163,6.327,162.188,6.862,162.342,7.093z M162.342,13.088
		c0,0.229,0.637,0.331,0.739,0.331v-0.637l-0.28,0.127c0.408-0.587,0.484-0.74,0.484-1.479c0-0.383-0.051-0.612-0.229-0.894
		c0-0.051,0.153-0.383,0.383-0.611c-0.511,0.076-0.97,0.229-1.276,0.611c0.077,0.205,0.307,1.098,0.307,1.174
		s-0.127,0.23-0.127,0.281V13.088z M162.265,14.823c0.714,0,0.894-0.639,0.894-1.199C162.163,13.624,162.265,13.827,162.265,14.823z
		 M162.317,8.903c0,0.103,0.025,0.332,0.025,0.383l0.918-0.943V8.189C162.623,8.215,162.317,8.675,162.317,8.903z M162.469,8.036
		c0.153-0.025,0.791-0.025,0.791-0.306c0-0.026-0.025-0.612-0.179-0.97c-0.356,0.307-0.638,0.689-0.739,1.123
		C162.342,7.909,162.444,8.011,162.469,8.036z M162.342,16.659c0.893,0,0.969-1.352,0.969-2.041c0.025,0-0.867,0.434-0.867,0.639
		c0,0,0,0.025,0.025,0.025l0.153,0.306l-0.28,0.179V16.659z M162.623,9.925c1.147,0,0.894-1.327,1.913-1.378v0.331
		c0.51,0,0.97-0.102,1.403-0.331V8.7c0.331,0,0.739-0.153,0.944-0.357c-0.102,0.204-0.179,0.306-0.179,0.535
		c0.229,0,0.536-0.255,0.638-0.331c0,0.204,0.051,0.28,0.179,0.28c0.153,0,0.408-0.127,0.459-0.127v0.356
		c1.147,0,2.093-0.459,2.832-1.326c-0.052-0.052-0.383-0.179-0.46-0.179c-0.535,0.076-1.07,0.357-1.121,0.995h-0.129V7.884
		c-0.152,0.203-0.383,0.383-0.637,0.459l0.306-0.612c0-0.077-0.306-0.307-0.434-0.307c-0.077,0.383-0.587,0.638-0.816,0.791
		c-0.103-0.255-0.688-0.331-0.791-0.331v-0.18c-0.255,0-0.383,0.18-0.612,0.18c-0.281,0-0.204-0.153-0.332-0.153
		c-1.071,0-2.755,1.147-3.316,1.913c0,0-0.025,0.051-0.025,0.076C162.444,9.797,162.623,9.925,162.623,9.925z M162.801,2.245
		c0.178,0,0.459-0.076,0.459-0.383c0-0.127-0.102-0.535-0.179-0.587c-0.103,0.28-0.612,0.791-0.612,0.791
		C162.545,2.245,162.673,2.245,162.801,2.245z M162.623,3.853c0.459,0,0.816,0.051,0.816-0.484c0-0.256,0-0.383-0.357-0.511
		C162.928,3.138,162.623,3.622,162.623,3.853z M162.623,5.536h0.638l0.179-0.766h-0.179C163.108,5.001,162.776,5.46,162.623,5.536z
		 M169.893,9.006c0.639,0,1.25,0.051,1.25-0.663c0-0.025-0.025-0.256-0.025-0.307C170.659,8.215,170.2,8.598,169.893,9.006z
		 M171.603,8.598c0,0,0.025,0.204,0.025,0.229c0.485-0.229,1.302-0.663,1.302-1.301c-0.281,0-0.434,0.229-0.689,0.229
		c-0.127,0-0.229,0-0.332-0.204C171.68,7.985,171.603,8.215,171.603,8.598z M172.215,9.006h0.791c0.076,0,0.383-0.739,0.383-0.995
		c0-0.127,0-0.204-0.205-0.28C172.981,8.139,172.215,8.598,172.215,9.006z M173.669,8.648c0.536-0.356,1.046-1.173,1.097-1.225
		c-0.025,0-0.076,0-0.076,0C173.975,7.424,173.669,7.935,173.669,8.648z M174,11.583c0.434,0,0.919-0.995,1.072-1.327
		c-0.051,0-0.256-0.025-0.307-0.025c-0.332,0-0.943,0.204-0.943,0.663C173.823,11.098,174,11.404,174,11.583z M174.026,13.139
		c0.46,0,1.582-0.638,1.582-1.173C174.766,11.966,174.026,12.271,174.026,13.139z M174.282,14.798c0.434,0,1.021-0.664,1.275-1.098
		c-0.025,0-0.152,0-0.178,0c-0.18,0-1.25,0.051-1.25,0.383C174.129,14.159,174.231,14.644,174.282,14.798z M174.538,16.251
		c0.356,0,0.918-0.637,1.02-0.969c-0.484,0-0.893,0.204-1.428,0.204C174.129,15.614,174.18,16.251,174.538,16.251z M174.434,3.521
		c0,0.102,0.104,0.229,0.154,0.256c0.586-0.052,0.662-1.047,0.662-1.633c0-0.996,0.077-1.072-0.969-1.072v1.301
		c0.179,0.077,0.256,0.715,0.484,0.715c0.051,0,0.103-0.025,0.153-0.076c-0.103,0.051-0.408,0.357-0.459,0.459
		C174.46,3.495,174.434,3.521,174.434,3.521z M174.282,13.547c0.535,0,1.429-0.025,1.429-0.765c0-0.052-0.025-0.307-0.025-0.332
		C175.149,12.654,174.665,13.139,174.282,13.547z M174.588,5.995c0.229,0,0.561-0.383,0.662-0.459c-0.025,0-0.229-0.025-0.254-0.025
		c-0.256,0-0.408,0.025-0.536,0.332C174.46,5.894,174.563,5.995,174.588,5.995z M174.46,11.812v0.204
		c0.587,0,1.429-0.511,1.429-1.123c0-0.102-0.051-0.459-0.204-0.638C175.685,10.333,174.46,11.786,174.46,11.812z M174.46,15.154
		c0.051,0,0.229,0,0.306,0c0.128,0,0.791,0,0.791-0.179v-0.816C175.225,14.44,174.511,15.026,174.46,15.154z M174.538,5.128
		c0.611,0,0.867,0.025,0.867-0.535c0-0.281-0.025-0.485-0.154-0.816C174.817,4.133,174.538,4.566,174.538,5.128z M174.588,8.7
		c0.586,0,0.994-0.103,0.994-0.715c0-0.102-0.025-0.357-0.025-0.434C175.225,7.781,174.588,8.215,174.588,8.7z M174.971,9.95
		c0.535,0,0.918-0.128,0.918-0.74c0-0.051-0.102-0.204-0.204-0.204c-0.357,0-0.894,0.562-1.097,0.766
		C174.665,9.95,174.869,9.95,174.971,9.95z M175.073,6.786c0.535,0,0.535-0.434,0.535-0.842c-0.357,0-0.739,0.562-0.842,0.689
		C174.792,6.786,174.946,6.786,175.073,6.786z M175.25,16.251c0.205,0,0.332-0.178,0.332-0.383
		C175.354,15.868,175.277,15.996,175.25,16.251z"/>
	<path fill="#003F77" d="M179.204,14.185c0.587-1.633,0.842-3.316,1.429-4.898c0.434-1.199,0.919-2.041,1.276-3.316l0.127-0.127
		c0.127-0.485,0.204-1.838,0.842-1.838c0-0.484,0.842-3.393,1.199-3.674c2.245,0,2.449-0.076,3.01,1.582
		c0,0.025,0.281,0.536,0.307,0.612c0,0.077-0.025,0.204-0.025,0.229c0.484,0,0.357,1.531,0.969,1.99
		c-0.051,0-0.178,0.102-0.178,0.128c0,0.356,0.332,0.714,0.332,1.097h0.331c-0.051,0.051-0.153,0.256-0.153,0.332
		c0,0.229,0.588,0.842,0.613,1.097c0.127,0.612,0.203,1.505,0.484,2.066c0.484,0.97,0.688,0.103,0.943,2.194
		c0.205,1.709,1.43,3.75,2.016,5.332c0,0.459-0.408,0.51-0.842,0.51c-0.535,0-0.842-0.356-1.326-0.356
		c-0.256,0-0.484,0.153-0.715,0.153c-0.281,0-0.586-1.275-0.893-2.041c-0.281-0.715-0.918-2.654-1.889-2.654
		c-0.662,0-1.301,0.154-1.964,0.154c-1.046,0-1.964-0.154-3.188-0.154c-0.281,1.021-0.357,1.404-1.123,3.139
		c-0.256,0.562-0.076,1.76-0.842,1.76c-0.639,0-0.97-0.076-1.684-0.331C178.26,16.276,179,14.771,179.204,14.185z M179.433,16.532
		c0.204,0,0.28-0.434,0.28-0.459h-0.203c0.152-0.179,0.688-0.74,0.791-1.098c-0.025,0-0.205-0.025-0.23-0.025
		c-0.535,0-0.867,0.766-0.867,1.199C179.204,16.328,179.204,16.532,179.433,16.532z M180.122,13.802
		c0,0.025,0.025,0.153,0.025,0.205c0.357-0.205,0.971-0.766,0.971-0.766c-0.077,0-0.307-0.025-0.332-0.025
		C180.403,13.216,180.122,13.776,180.122,13.802z M180.479,12.909c0.459,0,0.791-0.204,1.098-0.638c0,0-0.128,0-0.18,0
		C181.041,12.271,180.684,12.68,180.479,12.909z M180.607,12.118c0,0.025,0.025,0.153,0.025,0.153
		c0.306-0.153,0.714-0.331,0.944-0.612c-0.051-0.179-0.256-0.179-0.383-0.179C180.811,11.48,180.607,11.761,180.607,12.118z
		 M180.913,10.562c0,0.026,0.025,0.256,0.025,0.307c0.459-0.307,1.199-0.638,1.43-1.25c-0.025,0-0.128,0-0.154,0
		C181.449,9.618,180.913,9.745,180.913,10.562z M181.245,11.175h0.664v-0.613L181.245,11.175z M182.036,8.189
		c-0.434,0-0.535,0.816-0.639,1.097c0.077-0.025,1.199-0.688,1.762-1.097H182.036z M182.265,11.966c0.052,0,0.103,0,0.153,0
		c0.332,0,1.199-0.052,1.199-0.485c0-0.229-0.153-0.331-0.307-0.331c-0.076,0-0.943,0.408-1.275,0.663
		C182.086,11.94,182.163,11.966,182.265,11.966z M182.137,7.909c1.098,0,1.378-0.179,1.633-1.327h-0.152
		C183.082,7.22,182.137,7.577,182.137,7.909z M182.163,9.389c0.332,0,0.842-0.306,0.842-0.638c0-0.025-0.025-0.076-0.025-0.103
		C182.622,8.827,182.163,8.929,182.163,9.389z M182.368,7.245c0.611-0.357,2.092-1.275,2.092-2.219h-0.179
		c-0.179,0-1.505,0.918-1.505,1.122c0.383,0,0.637-0.179,0.994-0.179c-0.255,0.715-1.557,0.076-1.557,1.123
		C182.213,7.144,182.342,7.245,182.368,7.245z M182.954,5.307c0,0.025,0.025,0.179,0.025,0.179c0.867-0.23,1.658-0.893,2.066-1.709
		l1.889-0.639c0-1.046-1.047-1.862-0.995-1.862c-0.077,0-0.179,0.025-0.306,0.025c-0.154,0-0.664-0.331-0.919-0.331
		c-0.638,0-0.383,1.556-0.791,1.862h0.638c-0.383,0.688-1.275,0.356-1.275,1.581c0,0.205,0.051,0.332,0.332,0.332
		C183.159,4.745,182.954,4.949,182.954,5.307z M184.077,10.384c0.994,0,2.016-0.179,3.035-0.179c0-0.791-0.842-2.118-0.842-2.628
		l-1.225-2.373c-0.279,1.607-0.943,3.343-1.887,4.721c0,0.025-0.025,0.051-0.025,0.076
		C183.133,10.358,183.821,10.384,184.077,10.384z M183.898,11.889c0.383,0,0.739-0.255,0.995-0.536
		c-0.076,0-0.281-0.051-0.332-0.051C184.229,11.276,183.898,11.506,183.898,11.889z M184.663,12.042
		c0.205,0,0.435,0.025,0.664,0.025c0.664,0,1.352-0.102,1.76-0.715c-0.102-0.255-0.714-0.331-0.816-0.331
		c-0.229,0-0.714,0.536-0.765,0.638v-0.307C185.2,11.48,184.663,11.659,184.663,12.042z M185.811,4.593
		c0.256,0,0.791-0.74,1.275-1.123c-0.561,0-1.25,0.076-1.709,0.459C185.377,4.082,185.659,4.593,185.811,4.593z M187.241,8.189
		c0.459-0.383,0.943-0.944,0.943-1.582c0-0.28,0.025-1.122-0.408-1.122c-0.051,0-0.408,0.229-0.535,0.357l0.611-0.639
		c0-0.102-0.51-1.428-0.611-1.428h-0.154l-1.096,1.097c0,0-0.026,0.076-0.026,0.102c0,0.204,0.331,0.357,0.485,0.383
		c-0.205,0.025-0.18,0.255-0.18,0.408s0,0.562,0.256,0.562c0.051,0,0.281-0.128,0.408-0.204c0,0.356-0.179,0.511-0.179,0.842
		c0.356,0,0.688-0.179,1.097-0.179c-0.203,0.383-0.791,0.179-0.791,0.74C187.061,7.781,187.036,7.985,187.241,8.189z
		 M187.036,11.914c0.23,0,0.357-0.153,0.383-0.408C187.164,11.532,187.036,11.659,187.036,11.914z M187.955,9.465
		c0.562,0,0.894-0.587,0.894-1.046c0-0.332-0.129-1.174-0.512-1.174c-0.102,0.128-0.535,0.816-0.611,0.944
		c-0.076,0.077-0.205,0.179-0.205,0.229c0-0.025,0.077,0.229,0.205,0.229c0.28,0,0.688-0.153,0.943-0.153l-0.943,0.485L187.7,9.031
		C187.7,9.21,187.877,9.465,187.955,9.465z M188.668,12.45c0.613,0,0.944-0.664,0.944-1.174c0-0.791-0.204-1.301-0.46-2.143
		c-0.434,0-0.842,0.383-0.994,0.791h0.791v0.152c-0.23,0.281-1.098,1.174-1.403,1.735c0.051,0,0.28,0.025,0.306,0.025
		c0.588,0,1.021-0.485,1.582-0.485c-0.255,0.332-0.842,0.588-1.275,0.766C188.311,12.399,188.414,12.45,188.668,12.45z
		 M188.159,10.562l0.357-0.306C188.26,10.256,188.159,10.358,188.159,10.562z M189.23,13.879c0.357,0,0.843-0.868,0.843-1.199
		c0-0.179,0.025-0.739-0.23-0.739c0.051,0-0.893,0.535-1.021,0.816c0.077,0,0.052,0.152,0.229,0.152
		c0.051-0.025,0.816-0.152,0.842-0.152c-0.203,0.382-0.943,0.28-0.943,0.765C188.95,13.7,189.026,13.879,189.23,13.879z
		 M189.434,14.338c0.23,0,1.123-0.128,1.123-0.536c0-0.178,0-0.586-0.23-0.586C190.149,13.216,189.842,13.726,189.434,14.338z
		 M189.996,15.282c0.025,0,0.051-0.025,0.051-0.025l0.816-0.74v-0.255c-0.28,0-1.25,0.204-1.25,0.536
		C189.613,14.95,189.817,15.282,189.996,15.282z M191.168,16.379c0.23,0,0.357-0.103,0.357-0.28c0-0.357-0.332-0.995-0.51-1.301
		c-0.23,0.152-0.842,0.459-0.842,0.816c0.102,0,0.434-0.052,0.688-0.18l-0.612,0.639C190.352,16.379,190.889,16.379,191.168,16.379z
		"/>
	<path fill="#003F77" d="M194.153,15.409c0-3.112,0.331-6.123,0.331-9.439c-0.153-0.638-0.356-1.403-0.356-2.143
		c0-1.098,0.229-1.965,0.229-3.088c0-0.178-0.025-0.383-0.025-0.586C194.917,0,195.147,0,195.657,0c0.588,0,0.816,0,1.506,0.153
		c1.225,1.938,2.68,3.852,3.598,5.97c0,0.255,3.521,5.229,4.057,5.229c0.229,0,0.229-3.163,0.229-3.571s-0.025-2.144-0.025-3.394
		c-0.025-0.102-0.152-0.535-0.152-0.611c0-0.919,0.152-1.685,0.152-2.577c0-0.688,0.588-0.791,1.098-0.791
		c0.612,0,1.326-0.025,1.326,0.356c0,0.205-0.102,0.485-0.102,0.664c0,0.28,0.179,0.688,0.179,1.071
		c0,1.862,0.356,3.521,0.356,5.409c0,1.633-0.331,3.215-0.331,4.771c0,1.302-0.025,2.704,0.153,4.005
		c0,0.128,0.229,0.562,0.229,0.944c-0.612,0-1.71-0.255-1.938-0.331c-0.537-0.816-1.889-1.199-1.889-2.373
		c-0.307,0-0.307-0.025-0.307-0.332c-0.893,0-1.122-1.454-1.607-2.168c-0.561,0-0.739-0.893-0.943-1.25
		c-0.332-0.511-0.893-0.867-1.098-1.43c-0.305-0.816-2.627-4.26-3.061-4.26c-0.153,0-0.23,0.766-0.256,0.969
		c0,2.526,0.357,5.001,0.357,7.527c0,1.045-0.357,2.015-0.357,3.035c0,0.612-1.174,0.612-1.734,0.612
		c-0.051,0-0.51-0.076-0.766-0.153C194.28,17.17,194.153,15.741,194.153,15.409z M194.84,16.507h0.408l0.816-0.766v-0.179
		C195.326,15.562,194.84,15.64,194.84,16.507z M194.917,14.567c0,0.383,0.077,0.715,0.511,0.715c0.357,0,0.842,0.025,0.842-0.408
		c0-0.025-0.025-0.23-0.051-0.256c-0.205,0.18-0.613,0.485-0.971,0.485c0.154-0.128,0.18-0.255,0.18-0.408s-0.025-0.306-0.025-0.485
		c0-0.127,0.484-1.147,0.484-1.301c-0.816,0.102-0.943,0.408-0.943,1.148C194.944,14.21,194.917,14.39,194.917,14.567z
		 M195.096,1.25l0.51-0.306c-0.076-0.052-0.306-0.153-0.357-0.18c-0.051,0-0.279,0-0.279,0.18
		C194.969,0.995,195.071,1.199,195.096,1.25z M195.096,2.5l1.275-1.403c-0.025,0-0.102-0.025-0.152-0.025
		c-0.485,0-1.25,0.791-1.25,1.275C194.969,2.397,195.071,2.5,195.096,2.5z M194.969,3.929h0.127l2.525-1.25
		c0,0-0.152-0.484-0.306-0.484C196.805,2.194,195.377,3.394,194.969,3.929z M194.969,3.291h0.127l1.275-0.791
		c-0.025,0-0.102,0-0.152,0C195.76,2.5,194.969,2.78,194.969,3.291z M195.249,6.123c0.154-0.103,0.971-0.74,0.971-1.174
		c-0.128-0.204-0.23-0.663-0.23-1.071h0.025c0,0.051-0.688,0.307-0.918,0.51V5.97L195.249,6.123z M195.249,12.118l0.639-0.638
		c0,0-0.127,0-0.179,0c-0.103,0-0.612,0.103-0.612,0.332C195.096,11.863,195.223,12.093,195.249,12.118z M195.223,7.144
		c0.052,0,0.842-0.434,0.842-0.562V6.429C195.581,6.429,195.223,6.607,195.223,7.144z M195.428,8.98
		c0.357-0.255,0.74-0.562,0.74-1.046c-0.281,0-0.92,0.051-0.92,0.484C195.249,8.495,195.403,8.903,195.428,8.98z M195.249,10.536
		l0.816-0.791V9.593C195.479,9.745,195.249,9.694,195.249,10.536z M195.377,7.73c0.434,0,0.714-0.28,0.714-0.688
		C195.76,7.042,195.377,7.373,195.377,7.73z M195.428,11.021c0.434,0,0.842-0.153,0.842-0.663c0-0.025-0.025-0.256-0.051-0.281
		C196.04,10.23,195.53,10.664,195.428,11.021z M195.555,12.68c0.307,0,0.816-0.077,0.816-0.562c0-0.076-0.102-0.408-0.152-0.484
		C195.887,11.889,195.555,12.221,195.555,12.68z M195.683,9.337c0.306,0,0.562-0.076,0.562-0.356c0-0.153,0-0.255-0.18-0.332
		C195.887,8.827,195.683,9.057,195.683,9.337z M195.683,14.21c0.511,0,0.79-0.637,0.79-1.02
		C195.989,13.165,195.683,13.827,195.683,14.21z M196.065,2.041c0,0,0.052,0.025,0.077,0.025c-0.051,0,0.663-0.331,0.843-0.511
		c0-0.076-0.129-0.331-0.205-0.331C196.5,1.225,196.142,1.888,196.065,2.041z M198.694,6.148c0.102,0,0.994,0,0.994-0.229
		c0-0.587-0.739-1.633-1.122-2.143l-0.765-0.791c-0.154,0.025-0.512,0.28-0.816,0.484c0.356,0.612,0.356,0.893,0.893,0.893
		c0,0.612,0.025,0.867,0.535,1.301l0.459-0.637c0,0,0.025,0.127,0.025,0.178C198.897,5.536,198.694,5.766,198.694,6.148z
		 M199.434,6.939c0.331,0,0.484-0.408,0.484-0.714c-0.281,0-0.639,0-0.867,0.229C199.153,6.634,199.331,6.939,199.434,6.939z
		 M200.122,7.884c0.23,0,0.511-0.077,0.511-0.332c0-0.307-0.204-0.434-0.562-0.638c0,0-0.408,0.153-0.408,0.382
		C199.663,7.781,199.995,7.884,200.122,7.884z M200.607,8.827c0.28-0.204,0.356-0.561,0.356-0.867c-0.331,0-0.688,0-0.688,0.408
		C200.276,8.572,200.352,8.7,200.607,8.827z M201.475,10.256c0.331,0,0.408-0.612,0.408-0.791c0-0.331-0.23-0.995-0.639-0.995
		c-0.102,0-0.307,0.562-0.484,0.639c0,0.356,0.203,0.408,0.51,0.408c0.23,0,0.434-0.052,0.459-0.052
		c-0.127,0.153-0.51,0.179-0.51,0.357C201.219,9.95,201.372,10.256,201.475,10.256z M203.133,12.271
		c0.254,0,0.637-0.128,0.637-0.383c0-0.229-0.561-0.587-0.561-0.587c-0.051,0-0.076,0.025-0.076,0.025l-0.791-1.582
		c0,0-0.025-0.025-0.077-0.025c-0.356,0-0.408,0.562-0.408,0.816c0,0.434,0.153,0.588,0.562,0.588c0,0.102-0.076,0.306-0.076,0.459
		c0,0.127,0.051,0.229,0.229,0.229c0.052,0,0.281-0.052,0.408-0.179c-0.025,0.076-0.152,0.408-0.152,0.484
		C202.827,12.271,203.031,12.271,203.133,12.271z M203.745,13.241c0.153,0,0.588-0.179,0.791-0.332c0-0.357-0.025-0.434-0.127-0.434
		c-0.076,0-0.18,0.051-0.307,0.051v-0.434c-0.281,0-0.816,0.281-0.816,0.587c0,0.025,0.102,0.204,0.153,0.229
		c0.103,0,0.28-0.127,0.306-0.179V13.241z M205.352,14.798c1.403,0,1.582-1.787,1.582-2.68c0-0.127-0.025-0.306-0.179-0.306
		c-1.147,0-0.739,1.556-1.888,1.556c0-0.025,0.025-0.051,0.025-0.076c0-0.102-0.076-0.204-0.152-0.255
		c-0.129,0.076-0.639,0.28-0.816,0.484l0.611,0.638c0.332-0.229,1.199-0.918,1.709-0.918
		C206.245,13.573,205.505,14.491,205.352,14.798z M204.459,14.849c0.408,0,1.199-0.664,1.199-1.047c0-0.025-0.025-0.102-0.025-0.102
		C205.174,13.854,204.459,14.235,204.459,14.849z M205.097,15.512c0.28,0,0.536-0.077,0.536-0.408
		C205.377,15.129,205.097,15.18,205.097,15.512z M205.633,3.776h0.178l0.791-0.791l-0.152-0.153l0.306-0.153
		c0.026-0.025,0.153-0.689,0.153-0.97c0-0.076-0.127-0.28-0.153-0.28h-0.944c0,0-0.127,0.434-0.178,0.612
		c0,0.28,0.152,0.739,0.484,0.867h-0.484V3.776z M205.633,4.924c0.203,0,1.148-1.353,1.148-1.454h-0.18l-0.969,0.918V4.924z
		 M205.811,6.582h0.18l0.765-0.765c-0.077-0.256-0.688-0.332-0.765-0.332c-0.129,0-0.307,0.434-0.357,0.484
		C205.633,6.148,205.76,6.582,205.811,6.582z M205.811,10.358h1.098V9.72c-0.076,0-0.434,0.077-0.612,0.205
		c0.229-0.256,0.842-1.25,0.842-1.607c-0.536,0-0.46,0.714-1.021,0.791V8.827c0.459-0.383,0.943-0.969,0.943-1.582h-0.611
		c0.178-0.28,0.637-0.229,0.637-0.663c0-0.103-0.203-0.306-0.254-0.306c-0.357,0-0.919,0.586-0.919,0.969h0.179
		c0,0.025,0.025,0.103,0.025,0.128c-0.025,0.051-0.281,0.306-0.307,0.331c-0.152,0.408-0.178,1.123-0.178,1.633
		c0,0.715,0.229,0.408,0.357,0.74C206.016,10.128,205.888,10.358,205.811,10.358z M205.811,11.991c0.383,0,0.894-0.332,1.098-0.664
		h-0.612c0.204-0.127,0.485-0.51,0.485-0.611h-0.971V11.991z M205.811,15.588c0.485,0,0.971-0.255,0.971-0.79h-0.18L205.811,15.588z
		 M206.602,16.507c0.153,0.051,0.153-0.459,0.153-0.536c0-0.025,0-0.204,0-0.229l-0.765,0.332v0.306L206.602,16.507z M206.807,5.383
		c0-0.28,0-1.147-0.205-1.147c-0.127,0.152-0.484,0.611-0.484,0.893S206.678,5.383,206.807,5.383z"/>
	<path fill="#003F77" d="M212.647,15.741c-0.102,0-0.307,0.076-0.383,0.153c0-0.46-1.99-2.857-2.066-3.776
		c-0.025-0.127-0.025-0.229-0.025-0.357c0-0.28,0.025-0.51,0.025-0.739c0-0.255-0.025-0.485-0.153-0.791V6.786
		c0.434-0.484,0.356-2.066,0.791-2.704c1.964-2.985,4.898-3.954,8.394-3.954c0.893,0,1.914,0.076,1.914,0.51h0.893
		c0.051,0.255,0.383,0.179,0.535,0.179c0,0.025,0.715,0.229,0.996,0.459c0,0.025-0.026,0.052-0.026,0.077
		c0,0.356,0.229-0.18,0.229,0.816c0,0.484-0.076,1.147-0.484,1.147c-1.506,0-2.959-0.638-4.439-0.638
		c-0.867,0-1.607,0.332-2.348,0.638c-2.934,1.174-3.801,3.648-3.801,6.634c0,2.296,0.867,5.128,3.189,5.51
		c1.658,0.18,2.475,0.307,3.902,0.307c0.23,0,1.225-0.025,1.43-0.025c0.383-0.255,0.434-1.046,0.434-1.403
		c0-0.179-0.204-1.633-0.281-2.041c-0.102-0.484-0.408-0.562-0.739-0.562c-0.103,0-0.229,0.025-0.357,0.025
		c-0.485,0-0.97-0.152-0.97-1.505c0-0.408,0.051-0.97,0.459-0.97c0.052,0,0.103,0,0.18,0.025c1.045,0.077,1.684,0,2.857,0
		c0.434,0,1.25,0.052,1.25,0.307v6.276c0,1.403-1.506,1.761-2.603,1.761c-0.255,0-0.383-0.18-0.562-0.18
		c-0.51,0.408-1.479,0.434-2.5,0.434c-1.352,0-2.908,0.077-3.775-0.586C214.688,17.272,212.825,15.741,212.647,15.741z
		 M214.56,16.251c0.077,0,0.229-0.102,0.357-0.178c-0.026-0.051-0.153-0.153-0.153-0.179c-0.612-0.332-0.204-0.357-0.459-0.612
		c-0.587-0.587-0.612-0.025-0.97-0.639c-0.229-0.356-1.403-2.883-1.403-3.291c0-0.076,0.153-0.102,0.153-0.229
		c0-0.103-0.204-0.536-0.331-0.715l0.331-0.179V9.134c0-0.179-0.511-0.179-0.816-0.179l0.179-0.103l-0.179-0.204h0.816V8.292
		l-0.153-0.408c-0.229-0.153-0.357-0.281-0.357-0.536c-0.357,0-1.07,0-1.07,0.204v1.301c0.178,0.025,0.229,0.128,0.229,0.281
		c0,0.152-0.051,0.357-0.051,0.51c0,0.204,0.076,0.332,0.434,0.332c0.076,0,0.205,0,0.332-0.025
		c-0.179,0.331-0.816,0.127-0.816,0.611c0,0.281,0.229,0.408,0.229,0.894c0,0.331-0.025,0.867-0.025,0.97
		c0.255,0.127,0.255,0.714,0.306,0.791c0.076,0.203,0.639,0.638,0.639,0.714c0,0.025-0.025,0.077-0.025,0.077
		C212.545,14.695,213.387,16.251,214.56,16.251z M210.989,7.067h1.122c0-0.281-0.28-0.613-0.485-0.766c0.026,0,0.052,0,0.077,0
		c0.026-0.025,0.408,0.152,0.562,0.152c-0.102-0.178-0.127-0.28-0.127-0.331c0-0.204,0.434-0.103,0.434-0.332
		c0-0.28-0.205-0.408-0.205-0.663c0-0.025,0.025-0.204,0.025-0.255l0.485,0.484c0.229-0.128,0.408-0.663,0.459-0.765
		c-0.153-0.077-0.356-0.18-0.459-0.332c0.128-0.025,0.179-0.179,0.179-0.357c0-0.204-0.051-0.408-0.051-0.434
		c0.229,0.332,0.331,0.484,0.637,0.484c0.408,0,0.562-0.816,0.664-1.122c0.051,0.179,0.127,0.382,0.307,0.484
		c0.152-0.076,0.152-0.179,0.152-0.306c0-0.103-0.127-0.536-0.357-0.715c0-0.025,0.025-0.076,0.025-0.102l0.485,0.331l0.179-0.153
		l-0.179-0.791c-0.536,0.23-0.638,0.588-0.791,1.098c-0.052-0.179-0.153-0.357-0.306-0.484c-0.511,0.383-0.867,0.714-0.867,0.791
		c0,0.051,0.561,0.152,0.561,0.203c0,0.025-0.076,0.103-0.076,0.128h-0.893c-0.104,0-0.74,0.663-0.92,0.944
		c-0.229,0.229-1.02,2.347-0.994,2.347C210.631,6.812,210.708,7.067,210.989,7.067z M215.504,16.864c0.383,0,0.255-0.281,0.51-0.485
		c-0.051-0.153-0.229-0.153-0.383-0.153c-0.28,0-0.74,0-0.867,0.332C214.917,16.787,215.223,16.864,215.504,16.864z M215.606,2.704
		c0.23,0,0.434-0.152,0.562-0.332c-0.179-0.229-0.485-0.51-0.791-0.51C215.376,2.016,215.376,2.704,215.606,2.704z M216.167,1.913
		c0.179-0.306,0.331-0.688,0.331-0.969c-0.279,0.076-0.765,0.203-0.969,0.484C215.682,1.607,216.04,1.812,216.167,1.913z
		 M216.142,16.966c0.612,0,0.867-0.127,0.867-0.715C216.372,16.251,216.142,16.404,216.142,16.966z M216.499,2.397
		c0.307,0,0.639-0.229,0.639-0.561c0-0.204,0.025-0.766-0.256-0.766l-0.076,0.025C216.678,1.505,216.499,2.347,216.499,2.397z
		 M217.112,16.89c0,0.127,0.663,0.178,0.969,0.178c0-0.484-0.28-0.714-0.766-0.714c-0.076,0-0.178,0.331-0.178,0.511L217.112,16.89z
		 M217.698,1.607c0.18,0,0.23-0.511,0.23-0.663h-0.689C217.239,1.199,217.596,1.607,217.698,1.607z M218.642,17.017
		c0.28,0,0.485,0,0.688-0.152h1.71l0.179-0.18c-0.383-0.025-2.246-0.127-2.68-0.127c-0.051,0-0.306-0.025-0.356-0.025
		C218.183,16.864,218.336,17.017,218.642,17.017z M218.362,1.735h0.51c-0.051-0.154-0.127-0.511-0.332-0.639
		C218.413,1.275,218.362,1.53,218.362,1.735z M219.485,1.429c0.152-0.051,0.178-0.179,0.178-0.332h-0.332L219.485,1.429z
		 M220.198,10.843c0.23,0,1.302-0.638,1.455-0.766h-1.378l-0.331,0.639C219.944,10.817,220.147,10.843,220.198,10.843z
		 M220.224,1.913h0.382c0-0.102-0.051-0.357-0.178-0.484C220.25,1.505,220.224,1.735,220.224,1.913z M220.581,11.021
		c0.025,0,0.077,0.025,0.077,0.025c0.077,0,0.511-0.331,0.714-0.485h-0.076C221.014,10.562,220.735,10.843,220.581,11.021z
		 M222.239,13.496c1.276,0,1.174-2.372,1.174-3.266l-0.152-0.153h-1.225l-0.664,0.766c0.025,0,0.128,0.025,0.154,0.025
		c0.382,0,0.688-0.28,1.07-0.28c0,0.356-0.484,0.638-0.484,1.071h0.943c0,0.562-0.79,0.766-0.79,1.25h0.511
		C222.622,13.19,222.239,13.088,222.239,13.496z M222.061,16.711c0.332,0,0.893,0.025,1.046-0.332
		c-0.331-0.153-0.511-0.153-0.816-0.153s-0.511,0-0.765,0.332C221.704,16.711,221.857,16.711,222.061,16.711z M223.03,2.397
		c0-0.254-0.434-0.714-0.484-0.714c0-0.025-0.434,0.357-0.51,0.511C222.213,2.449,222.75,2.397,223.03,2.397z M222.036,12.425h0.28
		l0.46-0.612h-0.052C222.265,11.812,222.036,11.966,222.036,12.425z M223.107,16.073c0.153,0,0.229-0.434,0.229-0.664
		c-0.102,0-1.046-0.025-1.046,0.256C222.291,15.741,222.979,16.073,223.107,16.073z M222.316,14.363
		c0.536,0,0.868-0.306,0.944-0.842c-0.332,0-0.587,0.077-0.791,0.332l0.332-0.026l-0.154,0.205l-0.331,0.051V14.363z
		 M222.469,14.976h0.791v-0.638l-0.791,0.306V14.976z"/>
	<path fill="#003F77" d="M228.386,17.399c-0.331,0-1.122-0.102-1.276-0.535c0-1.531,0.154-3.113,0.154-4.644
		c0-1.633,0.051-3.368-0.332-4.976V0.484h3.164c0.484,0.179,0.842,0.179,1.428,0.179c0.18,0,0.332-0.025,0.459-0.179
		c1.302,0,2.909-0.153,3.317-0.153c0.306,0,1.735,0.128,2.015,0.153c0.052,0.026,0.18,0.255,0.205,0.332
		c0,0.688-0.23,0.816-0.23,1.429c0,0.076,0.025,0.179,0.025,0.28l-0.611,0.153c-0.715-0.051-1.43-0.076-2.169-0.076
		c-1.684,0-3.444,0.152-5.052,0.561c-0.178,0.383-0.203,0.613-0.203,0.995c0,0.536,0.203,1.071,0.203,1.607
		c0,0-0.127,1.046-0.178,1.479l0.306,0.307c0.052,0,0.638,0.051,0.816,0.051c1.097,0,1.429-0.204,1.862-0.204
		c0.076,0.077,0.153,0.179,0.23,0.179c-0.026,0-0.026,0-0.026,0s0.026,0.025,0.052,0.025c0.076,0,0.203-0.051,0.203-0.255h2.857
		c0.076,0.103,0.23,0.331,0.307,0.536l0.307-0.153c-0.154,0.153-0.154,0.306-0.154,0.663c0,0.307,0,0.943,0.025,1.071l-0.331,0.28
		c-2.066,0-3.878,0.103-5.995,0.205c-0.051,0-0.153-0.025-0.256-0.025c-0.102,0-0.203,0.025-0.203,0.152v4.746l0.178,0.28
		c0.025,0.076,1.684,0.179,2.577,0.179c0.638,0,1.812-0.459,2.577-0.459c0.357,0,1.225,0.102,1.275,0.152l0.178,0.128
		c0.026-0.128,0.154-0.153,0.281-0.153c0.051,0,0.179,0.025,0.332,0.025l-0.281,0.128c0.025,0,0.205-0.025,0.357-0.025
		c0.332,0,0.434-0.026,0.535,0.204c0.052,0,0.281-0.179,0.332-0.179c0.281,0.179,0.357,0.484,0.357,0.816
		c0,0.587,0.025,1.454-0.357,1.862c-0.102,0-0.611,0.025-0.688,0.025c-0.791,0-1.199-0.025-1.989-0.408H228.386z M228.03,2.372
		c0.025,0,0.152,0,0.178,0c0.256,0,1.99-0.765,2.041-0.943c-0.357-0.153-0.842-0.179-1.275-0.179c-0.179,0-1.225,0-1.225,0.025
		l-0.179,0.766c0.179,0,0.536-0.153,0.816-0.306L228.03,2.372z M227.698,3.188c0.332,0,0.637-0.255,0.791-0.51c0,0-0.077,0-0.103,0
		C228.055,2.679,227.698,2.832,227.698,3.188z M227.723,4.644c0,0.051,0.025,0.203,0.025,0.229c0.535-0.435,0.766-0.663,0.766-1.327
		c0-0.051-0.025-0.332-0.025-0.383c-0.205,0.205-0.74,0.511-0.74,0.613c0,0.152,0.229,0.203,0.408,0.203
		c0.102,0,0.178-0.025,0.229-0.025C228.131,4.312,227.723,4.158,227.723,4.644z M227.749,5.97V6.99c0.332,0,0.969-0.562,0.969-0.97
		c0-0.076-0.356-0.178-0.51-0.178C228.055,5.843,227.749,5.919,227.749,5.97z M228.03,8.853l0.816-0.816V7.832
		c-0.256,0-0.996-0.025-0.996,0.332C227.85,8.419,227.926,8.572,228.03,8.853z M227.875,5.511c0.894,0,0.867-0.076,0.867-0.816
		C228.361,4.694,228.03,5.229,227.875,5.511z M227.953,13.547c0,0.179,0.025,0.307,0.025,0.307h0.229
		c0.076,0,0.281-0.485,0.281-0.663c0-0.153-0.077-0.46-0.154-0.46l-0.025,0.026C228.003,12.757,227.953,13.216,227.953,13.547z
		 M228.003,7.577c0.46,0,0.843-0.127,0.843-0.663C228.463,6.914,228.003,7.169,228.003,7.577z M228.003,10.588
		c0.383,0,0.511-0.077,0.511-0.46l-0.025-0.178C228.334,10.077,228.003,10.308,228.003,10.588z M228.03,9.644
		c0.229,0,0.535-0.102,0.535-0.383C228.309,9.261,228.03,9.312,228.03,9.644z M228.208,11.506c0.204-0.076,0.204-0.356,0.204-0.51
		c-0.077,0-0.382,0.025-0.382,0.204C228.03,11.226,228.157,11.455,228.208,11.506z M228.03,15.308c0.305,0,0.382-0.281,0.382-0.484
		h-0.382V15.308z M228.208,16.558c0.23-0.229,0.689-0.663,0.689-0.816h-0.408V15.46c-0.18,0.103-0.408,0.664-0.459,0.766v0.051
		C228.03,16.404,228.106,16.456,228.208,16.558z M228.131,12.526c0.357,0,0.383-0.484,0.383-0.74
		C228.106,11.786,228.131,12.221,228.131,12.526z M228.667,16.558c0.434,0,0.536-0.102,0.816-0.484
		C229.177,16.2,228.922,16.354,228.667,16.558z M229.764,9.134c0.307,0,1.02-0.205,1.02-0.613h-1.785
		c-0.152,0-0.179,0.23-0.179,0.332h0.944V9.134z M229.764,16.558c0.051,0,0.127,0.025,0.178,0.025c0.129,0,0.256-0.051,0.307-0.204
		c0,0-0.051,0-0.076,0C230.122,16.379,229.891,16.431,229.764,16.558z M230.555,2.144c0,0.051,0.051,0.051,0.076,0.051
		c0.204,0,0.281-0.103,0.281-0.281c0-0.051-0.025-0.178-0.025-0.178C230.657,1.812,230.555,2.144,230.555,2.144z M230.835,9.286
		c0.536,0,1.327-0.459,1.607-0.943c-0.052,0-0.306-0.025-0.357-0.025C231.524,8.292,230.835,8.7,230.835,9.286z M230.887,16.558
		c0.051,0,0.382,0.025,0.459,0.025c0.408,0,0.791,0,0.943-0.51c-0.025,0-0.255-0.025-0.307-0.025
		C231.575,16.048,231.116,16.2,230.887,16.558z M231.652,1.429h0.179V1.275L231.652,1.429z M232.137,9.134h0.791
		c0.102,0,0.178-0.664,0.178-0.791h-0.178L232.137,9.134z M232.928,16.558c0.127,0,0.459-0.255,0.611-0.484
		c0,0-0.051-0.025-0.076-0.025C233.413,16.048,233.081,16.354,232.928,16.558z M234.024,8.955h1.276
		c-0.179-0.204-0.357-0.485-0.485-0.766C234.484,8.292,234.153,8.623,234.024,8.955z M234.024,15.895
		c0.025,0,0.408,0.025,0.485-0.153c-0.025,0-0.128,0-0.153,0C234.204,15.741,234.101,15.741,234.024,15.895z M234.024,16.379
		c0.511,0,0.639,0,0.945-0.306v0.306l1.25-0.484h-1.582L234.024,16.379z M234.612,1.275c0,0.306,0.203,0.332,0.408,0.332
		c0.28,0,0.766-0.128,0.766-0.511h-1.148C234.612,1.173,234.612,1.225,234.612,1.275z M235.454,16.558v0.255
		c0.383,0,0.766-0.229,0.969-0.587c-0.025,0-0.152,0-0.203,0C236.065,16.226,235.454,16.456,235.454,16.558z M236.525,17.017
		c0.663,0,0.688-0.638,0.688-1.122h-0.688V17.017z"/>
</g>
</svg>
